MeshVersionFormatted 2
Dimension 3

Vertices
345
1.3 0 0 2
1 0 0 2
1.3 0 2 3
1 0 2 3
1.255703574 0.3364647586 0 2
1.125833025 0.65 0 2
0.9192388155 0.9192388155 0 2
0.65 1.125833025 0 2
0.3364647586 1.255703574 0 2
-3.961609768e-15 1.3 0 2
-0.3364647586 1.255703574 0 2
-0.65 1.125833025 0 2
-0.9192388155 0.9192388155 0 2
-1.125833025 0.65 0 2
-1.255703574 0.3364647586 0 2
-1.3 -5.036639671e-15 0 2
-1.255703574 -0.3364647586 0 2
-1.125833025 -0.65 0 2
-0.9192388155 -0.9192388155 0 2
-0.65 -1.125833025 0 2
-0.3364647586 -1.255703574 0 2
2.070457765e-15 -1.3 0 2
0.3364647586 -1.255703574 0 2
0.65 -1.125833025 0 2
0.9192388155 -0.9192388155 0 2
1.125833025 -0.65 0 2
1.255703574 -0.3364647586 0 2
0.9396926208 0.3420201433 0 2
0.7660444431 0.6427876097 0 2
0.5 0.8660254038 0 2
0.1736481777 0.984807753 0 2
-0.1736481777 0.984807753 0 2
-0.5 0.8660254038 0 2
-0.7660444431 0.6427876097 0 2
-0.9396926208 0.3420201433 0 2
-1 1.454732309e-15 0 2
-0.9396926208 -0.3420201433 0 2
-0.7660444431 -0.6427876097 0 2
-0.5 -0.8660254038 0 2
-0.1736481777 -0.984807753 0 2
0.1736481777 -0.984807753 0 2
0.5 -0.8660254038 0 2
0.7660444431 -0.6427876097 0 2
0.9396926208 -0.3420201433 0 2
1.3 0 0.3333333333 4
1.3 0 0.6666666667 4
1.3 0 1 13
1.3 0 1.333333333 4
1.3 0 1.666666667 4
1.255703574 0.3364647586 2 3
1.125833025 0.65 2 3
0.9192388155 0.9192388155 2 3
0.65 1.125833025 2 3
0.3364647586 1.255703574 2 3
-3.961609768e-15 1.3 2 3
-0.3364647586 1.255703574 2 3
-0.65 1.125833025 2 3
-0.9192388155 0.9192388155 2 3
-1.125833025 0.65 2 3
-1.255703574 0.3364647586 2 3
-1.3 -5.036639671e-15 2 3
-1.255703574 -0.3364647586 2 3
-1.125833025 -0.65 2 3
-0.9192388155 -0.9192388155 2 3
-0.65 -1.125833025 2 3
-0.3364647586 -1.255703574 2 3
2.070457765e-15 -1.3 2 3
0.3364647586 -1.255703574 2 3
0.65 -1.125833025 2 3
0.9192388155 -0.9192388155 2 3
1.125833025 -0.65 2 3
1.255703574 -0.3364647586 2 3
1 0 0.3333333333 5
1 0 0.6666666667 5
1 0 1 5
1 0 1.333333333 5
1 0 1.666666667 5
0.9396926208 0.3420201433 2 3
0.7660444431 0.6427876097 2 3
0.5 0.8660254038 2 3
0.1736481777 0.984807753 2 3
-0.1736481777 0.984807753 2 3
-0.5 0.8660254038 2 3
-0.7660444431 0.6427876097 2 3
-0.9396926208 0.3420201433 2 3
-1 1.454732309e-15 2 3
-0.9396926208 -0.3420201433 2 3
-0.7660444431 -0.6427876097 2 3
-0.5 -0.8660254038 2 3
-0.1736481777 -0.984807753 2 3
0.1736481777 -0.984807753 2 3
0.5 -0.8660254038 2 3
0.7660444431 -0.6427876097 2 3
0.9396926208 -0.3420201433 2 3
-0.1637231513 -1.289649072 0.2931994733 4
-1.202221404 -0.4946349122 0.2934107406 4
-1.025709005 0.7986995908 1.76874788 4
0.7860909095 -1.035403826 0.2931883254 4
0.8005302799 1.024280856 0.334865247 4
-0.2267333262 1.280074997 1.682510688 4
-0.7875652121 -1.034282861 1.660274764 4
0.1726664886 -1.288482163 1.711975582 4
-1.289787327 -0.1626304105 1.745090734 4
-1.289975683 0.1611295671 0.2954903403 4
-0.8028579625 1.022457379 0.3333671641 4
0.4805259081 1.207929986 1.699824546 4
0.1691499102 1.288948528 0.2858059509 4
-0.7883585317 -1.033678299 0.3319319482 4
0.8214354934 -1.007593038 1.677793874 4
1.26783521 0.2873915108 1.166365489 4
1.267948718 -0.2868903077 1.166666667 4
1.049810864 0.7667445138 1.70029915 4
1.267948718 -0.2868903077 0.5 4
1.267948718 0.2868903077 0.5 4
1.196649731 -0.5079659655 1.700956957 4
1.267948718 0.2868903077 1.5 4
1.157531951 0.5917092047 1.379923503 4
1.170655187 0.5653020725 1.005712487 4
1.018377546 0.8080267166 1.16509742 4
1.014714562 0.8126219029 0.8400192961 4
0.8115789743 1.0155489 0.9977813809 4
0.8083248713 1.018140905 1.318756309 4
0.5681293595 1.169285693 1.153841418 4
0.5648546405 1.170871144 0.8259431812 4
0.295812759 1.265896841 0.982628803 4
0.3065182357 1.263347368 1.37030596 4
9.27138986e-05 1.299999997 1.16127488 14
0.006795895645 1.299982237 0.8177364921 4
-0.2932551987 1.266491764 0.9915664584 4
-0.3104594406 1.262384623 0.6165497151 4
-0.5723324069 1.167234174 0.8225869681 4
-0.5726731366 1.167067041 1.161592741 4
-0.8201126911 1.008670003 0.9914219211 4
-0.8129073758 1.014485879 1.325557312 4
-1.021199956 0.8044567422 1.150143214 4
-1.020830033 0.8049261112 0.830266346 4
-1.177389052 0.551139747 0.989795312 4
-1.179310108 0.5470170648 1.329296772 4
-1.271808039 0.2692662487 1.158808153 4
-1.270534522 0.2752126963 0.8281936767 4
-1.299814255 -0.02197505745 0.989751927 16
-1.275466122 0.2513685948 1.477907484 4
-0.5503442469 1.177761101 1.49970272 4
-1.299917571 -0.01463925729 0.61572129 4
-1.260719295 -0.3171543149 0.8202456995 4
-1.260408742 -0.3183862497 1.152251224 4
-1.157892103 -0.5910041266 0.986483202 4
-1.144469679 -0.6165948054 1.368734503 4
-0.995841238 -0.8356436014 1.155873635 4
-0.9923746061 -0.8397574895 0.8266387582 4
-0.7823281319 -1.038249823 0.9871054465 4
-0.7833110203 -1.03750848 1.30500945 4
-0.5349659322 -1.184825494 1.142815729 4
-0.5367035269 -1.18403941 0.8243047155 4
-0.2529082612 -1.27516172 0.9835743693 4
-0.2847019451 -1.26844188 1.364759821 4
0.0436725227 -1.29926622 1.152871445 4
0.03741332086 -1.299461521 0.8215662344 4
0.3339867921 -1.256364924 0.9824373808 4
0.3340570418 -1.256346247 0.6111636975 4
0.6072810078 -1.149438897 0.812003291 4
0.6079569943 -1.1490815 1.151186019 4
0.8498856742 -0.9837145627 0.9813068397 4
0.8504690563 -0.9832102442 1.319587256 4
1.04346649 -0.775356488 1.155199158 4
1.045907157 -0.7720610198 0.8306179986 4
1.049129536 -0.7676765053 1.487614807 4
-1.299775997 -0.02413206173 1.303410566 4
-0.2777605107 1.26997996 1.326581024 4
1.267948718 -0.2868903077 0.8333333333 4
1.26780014 0.2875461791 0.8342821669 4
0.8009499813 1.023952698 1.658946928 4
-0.4684612667 -1.212659904 0.3038622909 4
-0.4732076114 -1.210815658 1.694480712 4
-0.1516551771 -1.291123816 1.704160389 4
0.1713699801 -1.288655241 0.2885744556 4
0.4945633252 -1.202250855 0.2876995889 4
-1.055627633 0.758716218 0.3062053925 4
-1.213625528 0.4659539451 0.29765097 4
-1.28887832 -0.1696840499 0.2936908895 4
-1.045339865 -0.772828937 0.3038358834 4
-1.201835091 -0.4955728142 1.708485766 4
-1.042683159 -0.7764095765 1.696046512 4
-0.1696840499 1.28887832 0.2936908895 4
-0.4880432529 1.204912355 0.2989865084 4
0.4974884621 1.201043392 0.2936908895 4
0.3160800315 1.260989062 0.6040519631 4
0.1696840499 1.28887832 1.70630911 4
0.5013649981 -1.199430339 1.707450622 4
0.3361311701 -1.255792911 1.385419599 4
1.05178122 0.7640394391 0.307162056 4
1.008201936 -0.8206880387 0.2944476533 4
1.156958679 0.5928293314 0.6218292946 4
0.8727472389 -0.9634896248 0.615634208 4
-0.7930215551 1.030105244 1.688359824 4
-1.162281151 0.5823251041 0.6232425087 4
-1.14554014 -0.6146037651 0.6176372847 4
-0.7844591502 -1.036640652 0.6769505033 4
-0.2845327882 -1.268479835 0.617479641 4
-0.8151224329 1.012706976 0.6792070663 4
0.8091826846 1.017459278 0.6838018465 4
-1.194715154 0.5124994645 1.701890059 4
1.206007334 0.4853311343 1.723055874 4
1.190551939 -0.522097768 0.3095034188 4
1.206200573 0.4848506761 0.2786214253 4
1.269794924 -0.2786051863 1.485383434 4
1.185509861 -0.5334476267 1.332422777 4
1.184994689 -0.5345910468 1 4
1.185945709 -0.5324779566 0.6711209998 4
-1.2725745 -0.2656202977 1.472879871 4
-0.003055535636 1.299996409 1.452893583 4
0.6309405656 -1.13662395 1.447243907 4
0.02392003018 -1.299779917 1.460614361 4
0.002722724445 1.299997149 0.5257394062 4
-1.255703574 -0.3364647586 0.5284627639 4
-1.28887832 0.1696840499 1.768377926 4
1.031359342 -0.7913898577 1.771478702 4
0.009744059639 -1.299963482 0.5299421484 4
-0.4974884621 1.201043392 1.772827744 4
-0.964668029 -0.8714445443 1.435652752 4
0.6305970922 -1.136814544 0.527656644 4
0.6004651865 1.15301412 1.439463247 4
-1.263956277 0.3039975824 0.5401054483 4
-0.5746618337 -1.166089095 1.432391848 4
0.6041151622 1.151105934 0.549776122 4
-0.6046599272 1.15081987 0.5511376749 4
0.990774669 0.841644554 1.438855423 4
-1.008727972 0.8200413884 1.448721718 4
0.9804570116 0.8536416394 0.5588808121 4
-0.9653880689 -0.870646815 0.5522867706 4
-0.5797140439 -1.163585677 0.5520300766 4
-0.9854603292 0.847860802 0.555913725 4
1.06863661 -0.74028089 0.5503052689 4
1.276072451 -0.2482722306 1.751780494 4
1.280555891 0.2240013604 0.2245355036 4
1.276978656 -0.2435682879 0.2429751989 4
1.280528979 0.2241551561 1.775837143 4
-1.299892418 0.01672429778 1.561724298 4
-0.6417030842 -0.7669531614 0.2869900606 5
-0.987384394 0.1583415877 0.3054790989 5
0.3147055356 -0.949189352 0.2936440219 5
0.366611699 0.9303740442 0.3102364446 5
-0.681414519 0.7318977069 1.679946414 5
-0.3420222301 0.9396918613 0.2873569075 5
-0.8833628642 -0.4686897163 1.678294456 5
-0.3420201433 -0.9396926208 1.699616471 5
-0.01369088708 0.9999062754 1.695944934 5
0.9579715017 0.2868633854 1.165851016 5
0.9562533206 -0.2925398893 1.203376726 5
-0.9864060863 0.1643259958 1.697072256 5
0.3131275599 -0.9497110778 1.690673071 5
0.6702345949 0.7421493029 1.695843334 5
0.8713326681 -0.4906927567 0.26070743 5
0.8481794689 0.5297089659 0.2995346981 5
0.8702227594 -0.4926584507 1.719775393 5
0.9583333333 0.285652275 1.5 5
0.8134303876 0.581662277 1.380182866 5
0.8312407489 0.5559125987 1.002521713 5
0.6373967323 0.7705357913 1.162587438 5
0.6379416209 0.770084728 0.8218924445 5
0.3833208816 0.9236152347 0.9898622693 5
0.3740038996 0.9274271309 1.314708368 5
0.09667019332 0.9953164691 1.146966744 5
0.09416366743 0.9955567305 0.8147809802 5
-0.2006419857 0.9796646332 0.976870709 5
-0.1951196559 0.9807794451 1.368349169 5
-0.4874856927 0.873130975 1.15445692 5
-0.4838729851 0.8751382372 0.8122677559 5
-0.724695014 0.6890697619 0.9826706697 5
-0.7429407056 0.6693572349 0.6103780983 5
-0.9029934956 0.4296542179 0.8186548861 5
-0.8975123292 0.4409893638 1.155197971 5
-0.9883817599 0.1519917653 0.9831124481 5
-0.9879932082 0.1544973157 1.330842472 5
-0.989159229 -0.1468469259 1.15336596 5
-0.9892687966 -0.1461069745 0.8069082609 5
-0.9011583063 -0.4334901463 0.977682528 5
-0.9020151873 -0.431704299 0.6299081045 5
-0.7371950184 -0.6756800314 0.8096081349 5
-0.7353968174 -0.6776367175 1.141982063 5
-0.495918796 -0.8683689007 0.9742540156 5
-0.9877707718 -0.1559131245 1.494020235 5
-0.4974308932 -0.867503606 1.36459792 5
-0.2144493368 -0.9767351135 1.146431591 5
-0.2086721273 -0.977985656 0.8072827144 5
0.08661156908 -0.9962421574 0.9738904577 5
0.1163755091 -0.9932052864 1.360780851 5
0.3780498213 -0.9257852519 1.143497122 5
0.3847971996 -0.9230011458 0.8139787383 5
0.633930321 -0.7733901655 0.9683954624 5
0.6354471804 -0.7721443394 1.312526035 5
0.6357639438 -0.7718835454 0.6574144445 5
0.8327576661 -0.5536376699 0.7941439147 5
0.8370645037 0.54710421 0.6579074095 5
0.6398574154 0.7684936486 0.4904023812 5
-0.9005408154 -0.4347714801 1.324469196 5
-0.9867127885 -0.1624742227 0.4790371641 5
0.3875814813 0.9218354492 0.6613495185 5
0.9581491093 0.2862696009 0.8342308914 5
0.6375677638 -0.7703942799 1.65361516 5
0.359773329 0.9330397375 1.654614605 5
-0.8835289669 -0.4683765201 0.3026118084 5
-0.890677394 0.4546358762 1.495566705 5
-0.7180548056 0.6959865632 1.320848921 5
-0.01680411807 -0.9998588008 1.699503324 5
-0.009908447525 -0.9999509101 0.295506918 5
-0.3433500243 -0.9392075174 0.2839742568 5
-0.4981195441 -0.8671083668 0.6010726118 5
-0.6427876097 -0.7660444431 1.699616471 5
-0.8596028333 0.5109627863 0.2932763118 5
-0.6427930873 0.7660398468 0.3003795209 5
-0.001564884086 0.9999987756 0.2893919077 5
-0.1914080219 0.9815105548 0.606733392 5
-0.3556247869 0.9346288092 1.700249227 5
0.1204049164 -0.9927248643 0.6069619058 5
-0.9899469127 0.141439422 0.6561021685 5
0.6369218141 -0.7709284031 0.3274922673 5
0.8743594449 0.4852788489 1.722425733 5
0.9609826176 -0.2766087647 1.517005517 5
0.9603127379 0.2789255194 0.5124385436 5
0.9485722751 -0.3165606403 0.5235915259 5
0.9545652135 -0.2980021027 0.887783334 5
0.8257831676 -0.5639877304 1.110304787 5
-0.1884384307 -0.9820850054 1.448093573 5
-0.5001654901 0.865929837 1.450885094 5
-0.7511510066 -0.6601304153 1.441792021 5
0.8218047707 -0.5697691803 1.424974221 5
0.4170811053 -0.9088692709 1.427180588 5
0.1272734775 0.9918676635 1.436116764 5
-0.8660254038 0.5 1.774670539 5
-0.4938104032 0.8695695979 0.5234231349 5
-0.1835549521 -0.9830094504 0.5197540926 5
-0.984807753 -0.1736481777 1.780077071 5
-0.7561661018 -0.6543797265 0.5258594579 5
0.1373329065 0.9905249481 0.5397709505 5
0.5962701048 0.8027838826 1.435514643 5
0.9682551924 0.2499637621 0.2481625199 5
0.9682837823 -0.2498529908 1.751957058 5
0.6423017659 0.7664518521 0.2098759469 5
-0.9188588811 0.3945863108 0.5434211527 5
0.9698539482 0.2436869287 1.7585282 5
0.9701491717 -0.2425089374 0.2401249145 5
0.804025478 -0.5945948458 0.5126699165 5
-0.9851925042 -0.1714518292 0.2042365437 5
0.426330103 -0.9045676555 0.5418332684 5

Triangles
690
2 1 5 2
27 1 2 2
2 5 28 2
44 27 2 2
5 6 28 2
29 6 7 2
28 6 29 2
30 7 8 2
29 7 30 2
30 8 9 2
31 9 10 2
30 9 31 2
32 10 11 2
31 10 32 2
11 12 33 2
32 11 33 2
33 12 13 2
34 13 14 2
33 13 34 2
35 14 15 2
34 14 35 2
36 15 16 2
35 15 36 2
36 16 17 2
37 17 18 2
36 17 37 2
38 18 19 2
37 18 38 2
39 19 20 2
38 19 39 2
39 20 21 2
40 21 22 2
39 21 40 2
41 22 23 2
40 22 41 2
23 24 42 2
41 23 42 2
42 24 25 2
43 25 26 2
42 25 43 2
44 26 27 2
43 26 44 2
1 5 235 4
27 1 236 4
45 1 235 4
1 45 236 4
49 3 234 4
3 49 237 4
50 3 237 4
3 72 234 4
5 6 205 4
5 205 235 4
6 7 191 4
6 191 205 4
7 8 99 4
7 99 191 4
8 9 186 4
99 8 186 4
9 10 107 4
9 107 186 4
10 11 184 4
107 10 184 4
11 12 185 4
184 11 185 4
12 13 105 4
12 105 185 4
13 14 178 4
105 13 178 4
14 15 179 4
178 14 179 4
15 16 104 4
15 104 179 4
16 17 180 4
104 16 180 4
17 18 96 4
17 96 180 4
18 19 181 4
96 18 181 4
19 20 108 4
19 108 181 4
20 21 173 4
108 20 173 4
21 22 95 4
21 95 173 4
22 23 176 4
95 22 176 4
23 24 177 4
176 23 177 4
24 25 98 4
24 98 177 4
25 26 192 4
98 25 192 4
26 27 204 4
192 26 204 4
204 27 236 4
45 46 113 4
46 45 114 4
45 113 236 4
114 45 235 4
46 47 170 4
47 46 171 4
113 46 170 4
46 114 171 4
48 47 110 4
47 48 111 4
110 47 171 4
47 111 170 4
49 48 116 4
48 49 206 4
48 110 116 4
111 48 206 4
49 116 237 4
206 49 234 4
51 50 203 4
203 50 237 4
52 51 112 4
112 51 203 4
53 52 172 4
52 112 172 4
54 53 106 4
106 53 172 4
55 54 188 4
54 106 188 4
56 55 100 4
100 55 188 4
57 56 219 4
56 100 219 4
58 57 195 4
195 57 219 4
59 58 97 4
97 58 195 4
60 59 202 4
59 97 202 4
61 60 216 4
60 202 216 4
62 61 103 4
103 61 216 4
63 62 182 4
62 103 182 4
64 63 183 4
63 182 183 4
65 64 101 4
101 64 183 4
66 65 174 4
65 101 174 4
67 66 175 4
66 174 175 4
68 67 102 4
102 67 175 4
69 68 189 4
68 102 189 4
70 69 109 4
109 69 189 4
71 70 217 4
70 109 217 4
72 71 115 4
115 71 217 4
72 115 234 4
173 95 199 4
95 176 218 4
199 95 218 4
180 96 215 4
96 181 197 4
96 197 215 4
97 195 228 4
202 97 228 4
177 98 221 4
98 192 194 4
98 194 221 4
99 186 225 4
191 99 229 4
201 99 225 4
99 201 229 4
143 100 169 4
100 143 219 4
169 100 211 4
100 188 211 4
152 101 220 4
101 152 224 4
174 101 224 4
101 183 220 4
102 175 213 4
189 102 190 4
190 102 213 4
182 103 210 4
210 103 238 4
103 216 238 4
144 104 180 4
104 144 223 4
179 104 223 4
105 178 232 4
185 105 226 4
105 200 226 4
200 105 232 4
106 126 188 4
126 106 222 4
106 172 222 4
107 184 214 4
186 107 187 4
187 107 214 4
108 173 231 4
181 108 230 4
108 198 230 4
198 108 231 4
109 164 167 4
164 109 212 4
109 167 217 4
109 189 212 4
116 110 117 4
117 110 118 4
118 110 171 4
170 111 208 4
111 206 207 4
111 207 208 4
117 112 203 4
112 117 227 4
172 112 227 4
113 170 209 4
204 113 209 4
113 204 236 4
171 114 193 4
193 114 205 4
205 114 235 4
115 167 207 4
167 115 217 4
206 115 207 4
115 206 234 4
116 117 203 4
116 203 237 4
117 118 119 4
117 119 227 4
119 118 120 4
120 118 193 4
118 171 193 4
119 120 121 4
119 121 122 4
119 122 227 4
121 120 201 4
120 193 229 4
201 120 229 4
122 121 123 4
123 121 124 4
124 121 201 4
122 123 222 4
172 122 222 4
122 172 227 4
123 124 125 4
123 125 126 4
123 126 222 4
125 124 187 4
187 124 225 4
124 201 225 4
126 125 127 4
127 125 128 4
128 125 187 4
126 127 211 4
188 126 211 4
127 128 129 4
127 129 169 4
127 169 211 4
129 128 130 4
130 128 214 4
128 187 214 4
129 130 131 4
129 131 132 4
129 132 169 4
131 130 226 4
130 184 185 4
184 130 214 4
130 185 226 4
132 131 133 4
133 131 200 4
200 131 226 4
132 133 134 4
132 134 143 4
132 143 169 4
134 133 135 4
135 133 136 4
136 133 200 4
134 135 228 4
143 134 195 4
195 134 228 4
135 136 137 4
135 137 138 4
135 138 228 4
137 136 196 4
196 136 232 4
136 200 232 4
138 137 139 4
139 137 140 4
140 137 196 4
138 139 142 4
138 142 202 4
138 202 228 4
139 140 141 4
139 141 168 4
142 139 168 4
141 140 144 4
144 140 223 4
140 196 223 4
141 144 145 4
141 145 146 4
141 146 168 4
142 168 238 4
202 142 216 4
216 142 238 4
143 195 219 4
145 144 215 4
144 180 215 4
146 145 147 4
147 145 197 4
197 145 215 4
146 147 148 4
146 148 210 4
168 146 210 4
148 147 149 4
149 147 150 4
150 147 197 4
148 149 220 4
182 148 183 4
148 182 210 4
183 148 220 4
149 150 151 4
149 151 152 4
149 152 220 4
151 150 198 4
150 197 230 4
198 150 230 4
152 151 153 4
153 151 154 4
154 151 198 4
152 153 224 4
153 154 155 4
153 155 156 4
153 156 224 4
155 154 199 4
154 198 231 4
199 154 231 4
156 155 157 4
157 155 158 4
158 155 199 4
156 157 213 4
174 156 175 4
156 174 224 4
175 156 213 4
157 158 159 4
157 159 190 4
157 190 213 4
159 158 160 4
160 158 218 4
158 199 218 4
159 160 161 4
159 161 162 4
159 162 190 4
161 160 221 4
160 176 177 4
176 160 218 4
160 177 221 4
162 161 163 4
163 161 194 4
194 161 221 4
162 163 164 4
162 164 212 4
190 162 212 4
164 163 165 4
165 163 166 4
166 163 194 4
164 165 167 4
165 166 208 4
167 165 207 4
207 165 208 4
166 194 233 4
208 166 209 4
209 166 233 4
168 210 238 4
170 208 209 4
173 199 231 4
178 179 196 4
178 196 232 4
196 179 223 4
197 181 230 4
186 187 225 4
189 190 212 4
191 193 205 4
193 191 229 4
194 192 233 4
192 204 233 4
204 209 233 4
2 337 28 5
44 342 2 5
73 337 2 5
2 342 73 5
77 338 4 5
4 341 77 5
78 341 4 5
4 338 94 5
28 254 29 5
28 337 254 5
29 339 30 5
254 339 29 5
30 242 31 5
30 339 242 5
31 312 32 5
242 312 31 5
32 244 33 5
32 312 244 5
33 311 34 5
244 311 33 5
34 310 35 5
34 311 310 5
35 240 36 5
35 310 240 5
36 344 37 5
240 344 36 5
37 302 38 5
37 344 302 5
38 239 39 5
38 302 239 5
39 307 40 5
239 307 39 5
40 306 41 5
40 307 306 5
41 241 42 5
41 306 241 5
42 317 43 5
241 317 42 5
43 253 44 5
43 317 253 5
253 342 44 5
74 320 73 5
73 321 74 5
320 337 73 5
73 342 321 5
75 299 74 5
74 322 75 5
299 320 74 5
321 322 74 5
76 248 75 5
75 249 76 5
248 299 75 5
75 322 249 5
77 256 76 5
76 319 77 5
76 256 248 5
249 319 76 5
77 341 256 5
319 338 77 5
79 318 78 5
318 341 78 5
80 252 79 5
252 318 79 5
81 301 80 5
80 301 252 5
82 247 81 5
247 301 81 5
83 314 82 5
82 314 247 5
84 243 83 5
243 314 83 5
85 330 84 5
84 330 243 5
86 250 85 5
250 330 85 5
87 333 86 5
86 333 250 5
88 245 87 5
245 333 87 5
89 309 88 5
88 309 245 5
90 246 89 5
246 309 89 5
91 305 90 5
90 305 246 5
92 251 91 5
251 305 91 5
93 300 92 5
92 300 251 5
94 255 93 5
255 300 93 5
94 338 255 5
302 334 239 5
239 308 307 5
239 334 308 5
240 316 297 5
297 344 240 5
310 340 240 5
240 340 316 5
306 315 241 5
315 345 241 5
241 345 317 5
295 298 242 5
242 339 295 5
298 335 242 5
242 335 312 5
303 304 243 5
243 330 303 5
304 325 243 5
243 325 314 5
244 331 311 5
312 313 244 5
313 331 244 5
245 296 282 5
282 333 245 5
245 326 296 5
309 326 245 5
283 309 246 5
246 324 283 5
305 324 246 5
247 314 266 5
266 329 247 5
247 329 301 5
256 257 248 5
257 258 248 5
258 299 248 5
249 327 319 5
322 323 249 5
323 327 249 5
250 282 274 5
274 303 250 5
250 333 282 5
303 330 250 5
287 305 251 5
251 328 287 5
300 328 251 5
257 318 252 5
252 336 257 5
301 336 252 5
317 343 253 5
321 342 253 5
253 343 321 5
294 295 254 5
254 320 294 5
295 339 254 5
254 337 320 5
255 327 300 5
319 327 255 5
255 338 319 5
256 318 257 5
256 341 318 5
257 259 258 5
257 336 259 5
259 260 258 5
260 294 258 5
294 299 258 5
259 261 260 5
259 262 261 5
259 336 262 5
261 298 260 5
260 295 294 5
260 298 295 5
262 263 261 5
263 264 261 5
264 298 261 5
262 329 263 5
301 329 262 5
262 336 301 5
263 265 264 5
263 266 265 5
263 329 266 5
265 313 264 5
264 335 298 5
313 335 264 5
266 267 265 5
267 268 265 5
268 313 265 5
266 325 267 5
314 325 266 5
267 269 268 5
267 304 269 5
267 325 304 5
269 270 268 5
270 331 268 5
268 331 313 5
269 271 270 5
269 272 271 5
269 304 272 5
271 340 270 5
310 311 270 5
270 340 310 5
311 331 270 5
272 273 271 5
273 316 271 5
316 340 271 5
272 274 273 5
272 303 274 5
272 304 303 5
274 275 273 5
275 276 273 5
276 316 273 5
274 282 275 5
275 277 276 5
275 296 277 5
282 296 275 5
277 278 276 5
278 297 276 5
297 316 276 5
277 279 278 5
277 280 279 5
277 296 280 5
279 334 278 5
278 302 297 5
278 334 302 5
280 281 279 5
281 308 279 5
308 334 279 5
280 283 281 5
280 326 283 5
296 326 280 5
283 284 281 5
284 285 281 5
285 308 281 5
283 324 284 5
283 326 309 5
284 286 285 5
284 287 286 5
284 324 287 5
286 315 285 5
285 332 308 5
315 332 285 5
287 288 286 5
288 289 286 5
289 315 286 5
287 328 288 5
287 324 305 5
288 290 289 5
288 291 290 5
288 328 291 5
290 292 289 5
292 345 289 5
289 345 315 5
291 323 290 5
290 293 292 5
290 323 293 5
300 327 291 5
291 328 300 5
291 327 323 5
293 343 292 5
292 343 317 5
317 345 292 5
293 322 321 5
321 343 293 5
293 323 322 5
294 320 299 5
302 344 297 5
307 332 306 5
306 332 315 5
308 332 307 5
312 335 313 5
3 50 4 3
72 3 4 3
4 50 78 3
72 4 94 3
78 50 51 3
79 51 52 3
78 51 79 3
52 53 80 3
79 52 80 3
80 53 54 3
81 54 55 3
80 54 81 3
82 55 56 3
81 55 82 3
83 56 57 3
82 56 83 3
57 58 83 3
84 58 59 3
83 58 84 3
85 59 60 3
84 59 85 3
86 60 61 3
85 60 86 3
86 61 62 3
87 62 63 3
86 62 87 3
88 63 64 3
87 63 88 3
89 64 65 3
88 64 89 3
89 65 66 3
90 66 67 3
89 66 90 3
91 67 68 3
90 67 91 3
92 68 69 3
91 68 92 3
92 69 70 3
93 70 71 3
92 70 93 3
94 71 72 3
93 71 94 3

Tetrahedra
920
49 206 77 76 15
76 49 206 48 15
76 77 49 116 15
48 76 49 116 15
47 111 48 75 15
47 75 46 170 15
48 111 76 75 15
163 292 290 166 15
274 139 273 168 15
46 74 45 113 15
275 274 273 168 15
280 277 150 149 15
149 277 147 296 15
130 226 185 331 15
141 273 139 168 15
149 280 277 296 15
77 206 319 76 15
273 141 275 168 15
45 114 74 46 15
49 77 3 237 15
234 77 3 49 15
147 277 150 197 15
164 291 165 163 15
147 150 277 149 15
185 12 311 105 15
76 206 111 48 15
75 47 111 170 15
316 141 276 273 15
169 129 265 132 15
20 108 173 307 15
75 74 46 170 15
156 324 213 157 15
76 256 77 116 15
308 231 108 307 15
130 226 331 268 15
210 245 182 296 15
344 16 180 104 15
170 74 113 321 15
292 293 290 166 15
287 213 324 157 15
288 161 289 290 15
135 138 272 304 15
116 76 256 110 15
163 194 292 166 15
113 46 74 170 15
144 141 276 316 15
73 45 74 113 15
75 48 47 110 15
277 276 145 275 15
316 104 144 223 15
47 75 171 46 15
261 262 123 125 15
76 48 75 110 15
117 258 119 118 15
148 210 182 296 15
265 131 130 268 15
316 240 104 223 15
289 159 315 160 15
33 311 244 185 15
198 108 230 334 15
130 185 244 331 15
177 317 345 221 15
224 101 246 309 15
267 265 131 132 15
261 298 125 124 15
261 298 264 125 15
249 206 111 76 15
257 258 119 117 15
111 75 170 322 15
311 244 185 331 15
143 266 325 132 15
173 108 231 307 15
220 326 101 152 15
210 282 245 296 15
263 262 261 125 15
246 283 224 309 15
261 260 124 121 15
45 74 114 73 15
265 129 131 132 15
148 182 245 296 15
267 325 266 132 15
131 130 129 265 15
313 130 244 331 15
131 226 130 268 15
223 316 340 140 15
277 150 279 280 15
121 119 258 120 15
207 327 115 319 15
157 287 190 288 15
315 286 159 289 15
311 33 12 185 15
121 258 260 120 15
258 259 119 121 15
294 193 118 299 15
218 332 285 315 15
137 269 136 135 15
269 136 271 137 15
101 224 283 309 15
118 258 294 299 15
334 230 150 197 15
141 316 140 273 15
328 300 189 212 15
297 180 144 104 15
108 198 308 334 15
298 264 125 187 15
161 288 162 290 15
231 308 154 199 15
262 123 122 259 15
116 48 76 110 15
187 125 298 124 15
288 190 157 159 15
259 258 260 121 15
148 149 147 296 15
262 126 123 125 15
222 123 122 262 15
313 265 130 268 15
221 177 317 98 15
270 232 310 340 15
327 300 291 164 15
304 133 135 134 15
258 118 294 120 15
260 261 259 121 15
288 157 287 286 15
152 151 281 153 15
333 250 238 103 15
240 297 144 104 15
199 332 285 218 15
261 123 259 121 15
321 343 204 233 15
8 99 186 339 15
120 294 260 229 15
76 111 249 75 15
290 291 162 163 15
272 269 137 135 15
152 326 101 283 15
122 336 262 259 15
105 311 185 331 15
131 133 267 132 15
304 267 133 134 15
294 118 193 120 15
262 263 126 125 15
163 323 165 166 15
281 151 152 280 15
163 290 323 166 15
266 211 329 127 15
336 222 122 262 15
42 317 177 98 15
255 115 327 319 15
146 277 145 275 15
159 158 315 160 15
135 269 133 304 15
143 169 266 132 15
137 271 269 272 15
196 223 340 140 15
206 249 319 76 15
130 244 184 313 15
286 288 157 159 15
248 258 117 118 15
144 141 316 140 15
144 297 240 316 15
177 24 42 98 15
74 170 322 321 15
187 335 107 242 15
271 340 316 140 15
180 297 240 104 15
331 313 130 268 15
74 171 75 46 15
292 290 161 163 15
237 77 341 116 15
138 303 272 304 15
248 256 76 110 15
212 291 300 164 15
173 231 332 307 15
302 278 215 96 15
139 273 137 272 15
80 301 106 172 15
281 154 155 153 15
53 80 106 172 15
248 258 257 117 15
104 144 240 316 15
326 280 149 296 15
267 133 269 304 15
246 101 174 89 15
136 269 200 133 15
239 308 108 307 15
244 184 185 130 15
260 120 229 201 15
150 151 280 149 15
237 49 77 116 15
335 313 264 214 15
65 174 101 89 15
148 326 149 296 15
268 265 131 267 15
101 246 309 89 15
134 304 325 243 15
313 130 265 128 15
210 275 282 296 15
225 298 187 242 15
105 200 270 331 15
117 116 256 110 15
191 294 229 254 15
114 74 171 320 15
324 156 284 157 15
124 123 261 121 15
149 220 326 148 15
286 158 315 159 15
36 16 344 104 15
285 218 315 158 15
177 317 241 345 15
295 225 99 242 15
101 224 246 174 15
231 308 332 307 15
92 69 189 109 15
320 74 171 299 15
287 324 284 157 15
164 162 291 163 15
216 238 250 103 15
97 303 243 330 15
146 275 210 296 15
141 145 276 275 15
269 200 270 136 15
300 92 189 109 15
254 193 320 205 15
130 129 265 128 15
292 345 317 221 15
292 343 293 194 15
197 215 278 96 15
171 193 320 299 15
150 279 334 197 15
153 281 152 283 15
291 162 288 290 15
229 193 294 191 15
278 215 297 302 15
301 80 252 172 15
278 277 276 145 15
165 327 291 164 15
77 319 206 234 15
171 75 248 299 15
274 250 238 282 15
229 294 260 295 15
124 260 298 201 15
164 327 300 167 15
213 305 102 287 15
133 269 200 268 15
145 276 278 215 15
215 276 278 297 15
285 199 218 158 15
1 2 45 235 15
2 1 45 236 15
333 238 250 282 15
340 271 196 140 15
194 343 293 233 15
146 147 277 296 15
131 133 268 267 15
270 311 105 331 15
222 172 301 336 15
198 279 151 281 15
75 74 170 322 15
285 154 308 199 15
298 225 124 201 15
183 326 220 148 15
168 274 238 282 15
114 171 193 320 15
320 114 74 73 15
295 229 294 254 15
171 74 114 46 15
224 156 153 283 15
201 298 225 295 15
201 229 260 295 15
150 151 279 280 15
317 241 42 177 15
194 292 161 163 15
226 105 185 331 15
3 4 77 234 15
186 30 8 339 15
169 266 265 127 15
317 292 221 194 15
195 134 325 243 15
242 30 186 339 15
280 152 281 283 15
217 167 300 255 15
77 4 3 237 15
206 77 234 49 15
334 279 278 197 15
22 40 95 306 15
264 265 263 128 15
224 324 246 174 15
242 186 99 339 15
194 317 343 192 15
186 99 225 242 15
207 327 167 115 15
312 184 313 214 15
283 326 101 309 15
290 293 323 166 15
107 186 187 242 15
139 138 274 272 15
281 198 308 154 15
231 332 199 173 15
186 225 187 242 15
333 216 250 103 15
256 318 203 117 15
315 176 241 160 15
312 184 244 313 15
12 13 311 105 15
113 74 73 321 15
191 295 339 254 15
169 265 129 127 15
128 264 313 214 15
34 310 311 178 15
302 215 297 96 15
298 225 295 242 15
281 151 198 154 15
240 344 180 104 15
306 22 41 176 15
35 14 179 310 15
99 191 295 339 15
113 209 170 321 15
311 13 34 178 15
127 329 266 263 15
250 142 274 238 15
306 40 95 307 15
308 231 332 199 15
275 146 277 296 15
269 270 200 268 15
155 154 281 285 15
304 135 138 228 15
279 198 308 281 15
161 345 292 221 15
193 320 294 254 15
167 300 164 109 15
276 215 144 297 15
300 212 164 109 15
326 183 245 148 15
239 108 308 334 15
271 137 273 272 15
256 341 77 116 15
314 219 195 83 15
265 127 263 128 15
328 291 300 212 15
343 253 204 233 15
105 200 232 270 15
254 28 6 205 15
212 328 291 162 15
343 204 253 321 15
96 180 297 344 15
191 193 294 254 15
324 224 156 174 15
165 323 208 166 15
295 191 229 254 15
251 300 189 328 15
180 297 344 240 15
91 67 305 102 15
215 180 297 96 15
75 171 74 299 15
260 298 201 295 15
166 194 293 233 15
219 57 195 83 15
107 312 31 242 15
212 300 189 109 15
251 102 305 287 15
75 111 249 322 15
270 232 340 196 15
161 159 288 289 15
238 333 103 282 15
2 45 73 236 15
327 291 323 165 15
114 45 73 235 15
73 45 2 235 15
126 329 211 127 15
197 334 181 302 15
259 262 123 261 15
161 289 290 292 15
273 139 274 272 15
194 221 317 98 15
310 179 340 196 15
213 102 190 287 15
324 283 224 246 15
110 47 75 171 15
21 20 173 307 15
321 204 209 233 15
293 292 194 166 15
165 323 207 208 15
117 256 248 110 15
222 301 126 262 15
271 136 270 196 15
300 189 92 251 15
209 343 321 233 15
338 319 77 234 15
145 141 146 275 15
181 38 18 302 15
40 22 41 306 15
261 260 298 124 15
334 181 230 197 15
340 179 240 223 15
73 337 114 235 15
298 335 187 242 15
281 155 284 153 15
284 153 156 283 15
240 36 344 104 15
29 191 339 254 15
226 200 105 331 15
345 241 177 160 15
63 245 88 183 15
75 248 76 110 15
143 266 169 100 15
115 327 167 255 15
322 170 209 321 15
333 86 216 103 15
156 324 174 175 15
324 246 174 175 15
147 146 148 296 15
127 266 265 263 15
145 276 215 144 15
229 99 191 295 15
182 103 333 210 15
264 313 265 128 15
245 88 87 63 15
31 9 107 242 15
170 208 111 322 15
332 285 308 199 15
35 179 240 310 15
137 140 273 139 15
90 67 305 91 15
73 342 236 113 15
77 4 338 234 15
110 75 248 171 15
182 245 87 63 15
278 334 197 302 15
176 241 306 315 15
102 251 190 287 15
184 32 10 312 15
122 336 259 257 15
257 112 318 117 15
176 177 241 160 15
121 260 124 201 15
177 345 160 221 15
292 317 343 194 15
67 305 175 90 15
100 143 266 314 15
293 208 323 166 15
203 318 112 117 15
256 257 318 117 15
274 138 139 142 15
302 197 278 96 15
188 301 329 126 15
289 161 345 292 15
317 42 25 98 15
125 264 263 128 15
184 244 32 312 15
220 326 183 309 15
105 178 311 232 15
313 184 130 214 15
271 137 140 273 15
237 77 4 341 15
29 28 6 254 15
164 165 327 167 15
259 123 122 121 15
233 194 343 192 15
232 311 105 270 15
45 73 236 113 15
345 315 241 160 15
302 37 18 96 15
142 274 138 303 15
246 175 305 90 15
323 249 207 208 15
227 112 252 257 15
259 122 119 121 15
266 211 100 247 15
297 302 96 344 15
33 12 13 311 15
195 325 143 314 15
305 175 324 213 15
301 106 172 222 15
239 38 181 302 15
160 345 161 221 15
300 70 217 93 15
245 326 148 296 15
173 332 95 307 15
283 224 156 324 15
86 61 216 103 15
242 99 295 339 15
270 269 136 271 15
95 199 332 173 15
167 327 300 255 15
288 162 159 161 15
162 328 291 288 15
255 300 217 93 15
336 122 227 257 15
82 247 100 55 15
218 176 306 315 15
254 191 193 205 15
73 342 113 321 15
70 109 300 217 15
191 29 6 254 15
108 20 19 239 15
107 335 312 242 15
283 156 284 324 15
115 206 207 319 15
303 142 274 250 15
312 31 10 107 15
107 9 186 242 15
335 312 313 214 15
95 40 21 307 15
273 141 276 275 15
51 318 79 112 15
42 24 25 98 15
193 171 118 299 15
294 320 193 299 15
191 7 29 339 15
279 151 150 198 15
109 300 92 70 15
178 311 13 105 15
282 168 275 210 15
38 37 18 302 15
314 195 243 83 15
232 270 136 196 15
162 161 290 163 15
179 310 178 196 15
161 289 345 160 15
266 211 247 329 15
168 275 274 282 15
255 71 115 94 15
308 198 279 334 15
231 108 198 308 15
238 142 274 168 15
204 44 26 253 15
224 152 101 283 15
325 195 243 314 15
171 248 118 299 15
32 11 244 184 15
243 228 303 97 15
90 246 175 66 15
138 303 304 228 15
306 95 22 176 15
125 263 127 128 15
318 252 112 257 15
325 143 132 134 15
183 245 88 309 15
315 218 176 160 15
151 152 280 149 15
14 35 34 310 15
267 325 132 134 15
209 208 293 166 15
34 14 310 178 15
343 293 209 321 15
148 146 210 296 15
127 126 329 263 15
241 306 41 176 15
192 194 317 98 15
318 203 51 78 15
207 327 323 165 15
301 80 106 54 15
342 2 73 236 15
253 43 26 192 15
126 301 329 262 15
343 253 233 192 15
316 340 240 223 15
291 212 162 164 15
86 216 250 333 15
258 294 260 120 15
106 188 301 54 15
146 275 168 210 15
114 320 337 73 15
257 227 112 117 15
134 228 304 243 15
109 167 300 217 15
15 35 179 240 15
317 43 253 192 15
308 281 154 285 15
206 249 207 319 15
221 292 161 194 15
281 155 285 284 15
209 208 322 293 15
328 212 190 162 15
209 293 343 233 15
222 301 106 126 15
331 226 200 268 15
16 36 15 104 15
128 313 130 214 15
193 114 320 205 15
79 318 51 78 15
172 252 301 336 15
215 278 145 197 15
70 300 92 93 15
208 249 111 322 15
135 272 269 304 15
190 328 162 288 15
306 332 95 218 15
303 274 138 272 15
120 260 121 201 15
211 169 266 100 15
138 139 137 272 15
181 19 38 239 15
92 69 109 70 15
192 317 25 98 15
156 324 175 213 15
57 58 195 83 15
206 207 249 111 15
31 10 32 312 15
302 181 197 96 15
132 133 267 134 15
58 243 195 83 15
172 122 227 336 15
326 152 280 283 15
96 302 37 344 15
20 21 39 307 15
330 97 303 202 15
227 252 172 336 15
25 43 42 317 15
11 33 244 185 15
119 259 258 257 15
220 101 326 309 15
188 81 301 54 15
189 328 212 190 15
219 195 143 314 15
342 44 204 253 15
131 133 200 268 15
325 143 134 195 15
191 99 7 339 15
276 145 141 144 15
25 43 317 192 15
28 254 337 205 15
336 227 252 257 15
252 79 318 112 15
80 301 81 54 15
81 301 247 188 15
340 271 270 196 15
83 58 243 84 15
186 9 30 242 15
305 91 102 251 15
179 240 310 340 15
336 301 222 262 15
23 24 42 177 15
331 200 270 268 15
116 256 203 117 15
324 305 213 287 15
268 133 269 267 15
240 15 36 104 15
281 279 151 280 15
325 266 143 314 15
196 271 136 137 15
266 169 211 127 15
312 10 184 107 15
183 101 220 309 15
128 125 264 187 15
34 33 13 311 15
335 214 187 107 15
228 134 195 243 15
245 87 333 182 15
63 182 245 183 15
248 257 256 117 15
306 95 332 307 15
342 204 236 113 15
245 183 326 309 15
288 162 190 159 15
153 284 281 283 15
303 142 250 202 15
173 95 21 307 15
73 2 337 235 15
322 208 323 293 15
249 327 207 319 15
183 88 64 309 15
180 17 16 344 15
265 129 127 128 15
241 23 42 177 15
297 144 276 316 15
263 127 126 125 15
302 18 181 96 15
301 188 106 126 15
147 277 145 146 15
100 247 82 314 15
140 316 271 273 15
137 196 271 140 15
175 305 67 102 15
68 92 189 251 15
39 19 20 239 15
14 179 310 178 15
252 52 79 112 15
246 174 66 89 15
6 191 254 205 15
184 11 244 185 15
113 342 204 321 15
233 253 204 192 15
19 181 108 239 15
337 2 5 235 15
37 17 96 344 15
264 298 335 187 15
217 71 255 93 15
50 237 4 341 15
26 27 44 204 15
324 246 175 305 15
247 100 266 314 15
183 182 245 148 15
110 248 118 171 15
44 27 342 204 15
214 335 312 107 15
9 31 30 242 15
253 343 317 192 15
323 249 208 322 15
329 211 188 126 15
323 249 327 207 15
65 66 174 89 15
8 7 99 339 15
35 15 36 240 15
226 131 200 268 15
92 68 91 251 15
334 239 181 302 15
209 208 170 322 15
341 203 237 116 15
240 179 15 104 15
33 11 12 185 15
251 189 102 190 15
342 27 2 236 15
263 261 264 125 15
85 330 250 202 15
188 301 247 329 15
64 101 183 309 15
94 255 71 93 15
52 79 80 252 15
246 174 175 66 15
189 251 328 190 15
337 254 320 205 15
282 333 103 210 15
7 29 6 191 15
338 4 72 234 15
137 138 272 135 15
293 322 209 321 15
115 255 94 338 15
247 82 81 55 15
284 287 157 286 15
41 23 241 176 15
319 115 206 234 15
253 26 204 192 15
263 126 329 262 15
247 211 188 329 15
8 9 30 186 15
158 315 285 286 15
60 250 85 86 15
217 71 115 255 15
139 274 142 168 15
97 228 303 202 15
14 34 13 178 15
118 117 248 110 15
182 87 333 62 15
102 91 68 251 15
250 60 216 86 15
66 90 246 89 15
111 207 249 208 15
56 219 314 83 15
82 56 100 314 15
345 289 315 160 15
251 328 190 287 15
80 106 54 53 15
289 161 159 160 15
21 22 40 95 15
250 85 202 60 15
35 14 15 179 15
33 32 11 244 15
332 199 95 218 15
165 207 327 167 15
41 23 42 241 15
218 306 332 315 15
99 201 225 295 15
285 155 158 286 15
198 231 308 154 15
17 18 37 96 15
1 2 27 236 15
157 155 284 286 15
155 284 156 157 15
38 18 19 181 15
223 340 179 196 15
55 247 100 188 15
96 17 180 344 15
11 32 10 184 15
4 3 72 234 15
222 122 172 336 15
314 82 56 83 15
209 113 204 321 15
133 136 269 135 15
203 341 256 116 15
167 217 115 255 15
138 142 303 202 15
55 81 247 188 15
69 68 92 189 15
44 43 26 253 15
71 72 115 94 15
39 21 40 307 15
175 67 90 66 15
243 58 97 84 15
82 100 56 55 15
2 1 5 235 15
205 114 337 235 15
199 285 155 158 15
180 144 215 297 15
159 286 288 289 15
325 267 304 134 15
78 318 203 341 15
56 219 100 314 15
52 51 79 112 15
330 84 97 59 15
172 112 252 227 15
285 155 154 199 15
112 252 52 172 15
320 114 337 205 15
319 338 115 234 15
182 333 103 62 15
154 281 151 153 15
200 232 270 136 15
51 203 318 112 15
126 123 222 262 15
248 258 118 299 15
237 4 3 50 15
104 240 179 223 15
155 157 158 286 15
62 182 87 63 15
204 27 342 236 15
225 187 298 124 15
60 202 250 216 15
176 306 95 218 15
155 284 153 156 15
155 285 284 286 15
22 23 41 176 15
303 304 228 243 15
125 123 261 124 15
88 64 309 89 15
141 146 275 168 15
273 140 141 139 15
177 241 23 176 15
9 10 31 107 15
72 115 94 338 15
91 68 67 102 15
328 190 287 288 15
64 63 88 183 15
85 330 202 59 15
4 72 94 338 15
195 243 58 97 15
25 26 43 192 15
189 102 68 251 15
238 168 282 210 15
223 144 316 140 15
85 84 330 59 15
19 39 38 239 15
214 312 184 107 15
78 50 4 341 15
2 5 28 337 15
84 97 243 330 15
342 2 27 44 15
247 211 100 188 15
118 258 119 120 15
36 16 17 344 15
193 294 120 229 15
229 201 99 295 15
224 153 152 283 15
218 315 158 160 15
293 209 166 233 15
175 305 102 213 15
282 103 238 210 15
203 50 51 78 15
202 142 250 216 15
28 5 6 205 15
61 216 60 86 15
100 219 143 314 15
238 250 142 216 15
228 138 303 202 15
341 318 203 256 15
7 8 30 339 15
243 195 228 97 15
56 57 219 83 15
78 203 50 341 15
250 330 303 202 15
72 115 338 234 15
190 213 287 157 15
253 204 342 321 15
85 202 60 59 15
7 30 29 339 15
237 50 203 341 15
5 28 337 205 15
86 333 87 62 15
205 337 5 235 15
257 119 227 117 15
17 37 36 344 15
115 255 338 319 15
84 58 97 59 15
202 330 97 59 15
188 55 81 54 15
71 217 70 93 15
157 158 286 159 15
228 304 135 134 15
323 163 291 290 15
291 163 323 165 15
132 266 265 169 15
132 265 266 267 15
277 197 145 278 15
145 197 277 147 15
245 210 333 282 15
333 210 245 182 15
197 279 277 150 15
197 277 279 278 15
334 150 198 279 15
334 198 150 230 15
239 20 307 108 15
239 307 20 39 15
257 122 119 259 15
257 119 122 227 15
172 80 52 53 15
172 52 80 252 15
214 264 187 128 15
214 187 264 335 15
101 89 64 65 15
64 89 101 309 15
196 310 232 340 15
196 232 310 178 15
310 232 311 178 15
310 311 232 270 15
149 326 152 280 15
149 152 326 220 15
108 334 181 230 15
181 334 108 239 15
86 103 62 61 15
62 103 86 333 15

End
