MeshVersionFormatted 2
Dimension 3

Vertices
486
1.25 0 0 9
1.25 0 0.25 9
0 1.25 0.25 8
0 1.25 0 8
0 1 0 8
0 1 0.25 8
1 0 0.25 9
1 0 0 9
1.2475334105235 0.078488149599537 0.25 4
1.2401433765959 0.15666654232884 0.25 4
1.2278590632919 0.23422664385579 0.25 4
1.210728951196 0.31086235979257 0.25 4
1.1888206450136 0.38627124406242 0.25 4
1.1622206068372 0.46015569217696 0.25 4
1.1310338148501 0.53222411601284 0.25 4
1.0953833491938 0.6021920941934 0.25 4
1.0554099058154 0.66978349539731 0.25 4
1.0112712416757 0.73473156714523 0.25 4
0.96314155186124 0.7967799891302 0.25 4
0.91121078241574 0.85568388439265 0.25 4
0.85568388043891 0.91121078612855 0.25 4
0.79677998532107 0.96314155501243 0.25 4
0.73473156363365 1.011271244227 0.25 4
0.66978349202009 1.0554099079587 0.25 4
0.60219209103516 1.09538335093 0.25 4
0.53222411300349 1.1310338162662 0.25 4
0.46015568955756 1.1622206078743 0.25 4
0.38627124183306 1.1888206457379 0.25 4
0.31086235804111 1.2107289516457 0.25 4
0.23422664250439 1.2278590635497 0.25 4
0.15666654146662 1.2401433767048 0.25 4
0.078488149180586 1.2475334105499 0.25 4
0.078488149599537 1.2475334105235 0 3
0.15666654232884 1.2401433765959 0 3
0.23422664385579 1.2278590632919 0 3
0.31086235979257 1.210728951196 0 3
0.38627124406242 1.1888206450136 0 3
0.46015569217696 1.1622206068372 0 3
0.53222411601284 1.1310338148501 0 3
0.6021920941934 1.0953833491938 0 3
0.66978349539731 1.0554099058154 0 3
0.73473156714523 1.0112712416757 0 3
0.7967799891302 0.96314155186124 0 3
0.85568388439265 0.91121078241574 0 3
0.91121078612855 0.85568388043891 0 3
0.96314155501243 0.79677998532107 0 3
1.011271244227 0.73473156363365 0 3
1.0554099079587 0.66978349202009 0 3
1.09538335093 0.60219209103516 0 3
1.1310338162662 0.53222411300349 0 3
1.1622206078743 0.46015568955756 0 3
1.1888206457379 0.38627124183306 0 3
1.2107289516457 0.31086235804111 0 3
1.2278590635497 0.23422664250439 0 3
1.2401433767048 0.15666654146662 0 3
1.2475334105499 0.078488149180586 0 3
0.078459095913474 0.99691733371852 0.25 13
0.1564344654217 0.98768834053472 0.25 13
0.23344536445888 0.97236992025291 0.25 13
0.30901699519328 0.95105651602926 0.25 13
0.38268343340396 0.92387953208097 0.25 13
0.45399050093552 0.89100652357899 0.25 13
0.52249856604448 0.85264016353997 0.25 13
0.58778525373991 0.80901699332332 0.25 13
0.64944804990226 0.76040596425735 0.25 13
0.70710678280276 0.70710677957033 0.25 13
0.76040596691847 0.64944804678648 0.25 13
0.80901699539992 0.58778525088172 0.25 13
0.85264016521973 0.52249856330336 0.25 13
0.89100652485358 0.45399049843399 0.25 13
0.92387953298127 0.38268343123046 0.25 13
0.95105651659775 0.30901699344364 0.25 13
0.97236992056416 0.23344536316243 0.25 13
0.98768834067497 0.15643446453616 0.25 13
0.996917333753 0.078459095475348 0.25 13
0.99691733371852 0.078459095913474 0 14
0.98768834053472 0.1564344654217 0 14
0.97236992025291 0.23344536445888 0 14
0.95105651602926 0.30901699519328 0 14
0.92387953208097 0.38268343340396 0 14
0.89100652357899 0.45399050093552 0 14
0.85264016353997 0.52249856604448 0 14
0.80901699332332 0.58778525373991 0 14
0.76040596425735 0.64944804990226 0 14
0.70710677957033 0.70710678280276 0 14
0.64944804678648 0.76040596691847 0 14
0.58778525088172 0.80901699539992 0 14
0.52249856330336 0.85264016521973 0 14
0.45399049843399 0.89100652485358 0 14
0.38268343123046 0.92387953298127 0 14
0.30901699344364 0.95105651659775 0 14
0.23344536316243 0.97236992056416 0 14
0.15643446453616 0.98768834067497 0 14
0.078459095475348 0.996917333753 0 14
0 1.25 0.18750000000009 2
0 1.25 0.12500000000051 2
0 1.25 0.06250000000026 2
0 1.1875 0 8
0 1.125 0 8
0 1.0625 0 8
0 1 0.062499999999853 7
0 1 0.12499999999967 7
0 1 0.18749999999984 7
0 1.0625 0.25 8
0 1.125 0.25 8
0 1.1875 0.25 8
1.1875 0 0.25 9
1.125 0 0.25 9
1.0625 0 0.25 9
1 0 0.18750000000009 10
1 0 0.12500000000051 10
1 0 0.06250000000026 10
1.0625 0 0 9
1.125 0 0 9
1.1875 0 0 9
1.25 0 0.062499999999853 1
1.25 0 0.12499999999967 1
1.25 0 0.18749999999984 1
1.0479872598926 0 0.093907760786869 1
1.1972394191886 0 0.15616656466713 1
1.1589766969572 0 0.053307804225893 1
1.096349906804 0 0.18637825040836 1
1.2005197486333 0 0.094608205742305 1
1.1422977433543 0 0.12358743160335 1
1.0471814607254 0 0.15361400599741 1
1.1571759745074 0 0.1958002486754 1
1.096501899817 0 0.063029625303349 1
1.0860636552029 0 0.12410341403506 1
1.0457531758292 0 0.045753175587698 1
1.0412062737195 0 0.20549845106011 1
1.204246824926 0 0.20424682383546 1
1.2042468274484 0 0.045753177117709 1
0 1.1972394191359 0.093833434921114 2
0 1.0479872607353 0.15609223734079 2
0 1.1589766979293 0.19669219613702 2
0 1.0963499033951 0.063621747926484 2
0 1.2005197501431 0.15539179325353 2
0 1.1422977411812 0.12641256795922 2
0 1.0471814598609 0.096385994372715 2
0 1.157175973911 0.054199751597159 2
0 1.096501897926 0.18697037481827 2
0 1.086063653567 0.12589658501884 2
0 1.2042468230703 0.045753173038612 2
0 1.0457531758864 0.20424682443561 2
0 1.2042468242993 0.20424682465839 2
0 1.0412062725302 0.044501548610725 2
1.0598314879843 0.12543932321541 0 3
0.12543932246268 1.0598314876901 0 3
0.6600781552342 0.83716007780848 0 3
0.36948795963619 1.0006693633551 0 3
0.88646832304399 0.59221117917354 0 3
1.0271601701598 0.28968912932413 0 3
0.25785267056885 1.1549002371214 0 3
0.52147077295266 0.9311530695604 0 3
0.78369029920515 0.7244358641533 0 3
0.96919675978092 0.44680582763093 0 3
0.055267410325317 1.1552976053837 0 3
1.155391457196 0.055107121195893 0 3
1.1150029205305 0.39776715913393 0 3
0.93751397879672 0.72285390179168 0 3
0.66825463965662 0.97718266500286 0 3
0.78125857124328 0.8861638975271 0 3
1.0168607591177 0.60136977443991 0 3
0.47008461075944 1.0860298345067 0 3
1.1529255311438 0.25770938820275 0 3
0.20836248059399 1.0460723780921 0 3
0.17976064815277 1.1127852089763 0 3
1.0500057101227 0.20202563875105 0 3
1.1195137875974 0.17349011853587 0 3
0.28936071273247 1.0262764916385 0 3
0.34659543069986 1.0666016681505 0 3
0.83740474083439 0.66124732285678 0 3
1.0011912294828 0.3701377535256 0 3
0.93028547134663 0.52111548761762 0 3
0.59208257423206 0.8876558716555 0 3
0.72372051840172 0.7830843007438 0 3
0.44637290797076 0.96862170889255 0 3
0.52092514967664 1.0096263227425 0 3
1.0147513151691 0.51073140138906 0 3
0.80726116512849 0.79930982910136 0 3
0.85654751085604 0.73897029930774 0 3
0.58631452357593 0.96749690640039 0 3
1.043003034685 0.43810217934327 0 3
1.0921794246783 0.061322080349565 0 3
0.061712579700716 1.0934518375969 0 3
1.1361439467208 0.32860402412788 0 3
0.72593073808272 0.93388721326806 0 3
0.97898817829157 0.66385458527209 0 3
0.11837181100189 1.1257038997503 0 3
1.1876700916395 0.11226787757208 0 3
1.1235127725697 0.1093785879226 0 3
0.11334099779054 1.1902802663528 0 3
1.0673191230119 0.34454122597473 0 3
0.66041992758253 0.90629898546859 0 3
0.9081466239778 0.65787307209995 0 3
0.32638752778003 1.1431127861487 0 3
0.40785177782778 1.1166434445083 0 3
1.0848706749354 0.25792019705262 0 3
0.26065304822486 1.0856980853245 0 3
0.72514018394183 0.84903007322735 0 3
0.95201401530042 0.58339494093748 0 3
0.42728457301881 1.031556214768 0 3
0.18051385382375 1.1809771279906 0 3
1.1823129800041 0.18725997902837 0 3
0.85051856848122 0.84388665764887 0 3
0.54381379982388 1.0672946728711 0 3
1.0696665501171 0.53975921645073 0 3
0.89159417381745 0.79753044284915 0 3
0.60059286522703 1.03447227424 0 3
1.0944075925004 0.48297827070193 0 3
0.05139288427557 1.043125105444 0 3
1.0429117430994 0.052677928343637 0 3
1.2068525557178 0.047718931575127 0 3
0.047004797228872 1.2064146969998 0 3
0.12543932321541 1.0598314879843 0.25 4
1.0598314876901 0.12543932246268 0.25 4
0.83889961019889 0.65954141997264 0.25 4
1.0012650313122 0.36938617054459 0.25 4
0.59221117851195 0.88646832185954 0.25 4
0.28929252362013 1.0260847936044 0.25 4
1.1591998724086 0.25548387498328 0.25 4
0.93579465410869 0.51806363094704 0.25 4
0.7244358641533 0.78369029920515 0.25 4
0.44680582763093 0.96919675978092 0.25 4
1.155391455903 0.055107123180444 0.25 4
0.055262990585537 1.1552984890146 0.25 4
0.39776715921673 1.1150029202067 0.25 4
0.72285390079267 0.93751398021112 0.25 4
0.97720206358205 0.66823236556864 0.25 4
0.8861638975271 0.78125857124328 0.25 4
0.60136977443991 1.0168607591177 0.25 4
1.092255284604 0.47087274328862 0.25 4
0.25770938820275 1.1529255311438 0.25 4
0.20808891483983 1.0456886609146 0.25 4
0.179973010594 1.1126324573019 0.25 4
1.0500057099646 0.20202563763705 0.25 4
1.0295482836016 0.28600029134875 0.25 4
1.0728644076909 0.3430952722857 0.25 4
1.1202537103529 0.17211476456187 0.25 4
0.78369030219168 0.72443586061457 0.25 4
0.66124732277471 0.8374047411048 0.25 4
0.37011127867596 1.0007558964413 0.25 4
0.89278672101919 0.5899796838811 0.25 4
0.52111548685897 0.93028547135476 0.25 4
0.97408819099928 0.44305344227087 0.25 4
0.51073139622857 1.0147513162256 0.25 4
0.79933504448472 0.80728342722775 0.25 4
1.0121451854562 0.51485304105555 0.25 4
0.96992934894188 0.58239367938216 0.25 4
0.73899638143244 0.85654532657005 0.25 4
0.43811477679231 1.0429794770242 0.25 4
0.061709655004087 1.0934512932206 0.25 4
1.0921794216119 0.06132207973498 0.25 4
0.32883924472637 1.1362154350234 0.25 4
0.93389344814302 0.72580690918624 0.25 4
0.66385458581381 0.97898817788683 0.25 4
0.11837533247142 1.1256901573244 0.25 4
1.1876700934399 0.11226787836004 0.25 4
1.1235127730007 0.10937858971552 0.25 4
0.10938007823331 1.1893860859533 0.25 4
0.90643593005092 0.65856254936042 0.25 4
0.34504173099945 1.0669927267908 0.25 4
0.6578716822116 0.90814933809258 0.25 4
1.1181494404696 0.40487539272049 0.25 4
1.1443878871135 0.32500086591022 0.25 4
0.26065304986354 1.0856980857392 0.25 4
0.84903006389978 0.72514017597533 0.25 4
0.58339493668328 0.95201400835819 0.25 4
1.0503768818081 0.41201946361671 0.25 4
0.1815478527452 1.1810610146908 0.25 4
1.1824163831315 0.18727635756317 0.25 4
0.84388710539729 0.85051896364279 0.25 4
0.53975921627062 1.0696665498683 0.25 4
1.06571691344 0.55167941303439 0.25 4
1.0900056859286 0.24921179262567 0.25 4
0.48297878092981 1.0944069165469 0.25 4
0.79753264620613 0.89159415556203 0.25 4
1.0337234705565 0.60611648471933 0.25 4
0.051392772306303 1.0431250635594 0.25 4
1.0429117428116 0.052677927280066 0.25 4
0.047004794711493 1.2064146926396 0.25 4
1.2068525542754 0.047718937464931 0.25 4
0.61909394782798 0.78531693204894 0.067995624723237 5
0.78531693204894 0.61909394782798 0.18200437527676 5
0.87249600783553 0.48862124013499 0.18200437521447 5
0.96267592829411 0.27065671446145 0.18652845795969 5
0.19509032141612 0.98078528052258 0.06799562474463 5
0.34611705604203 0.93819133630449 0.067995624748186 5
0.48862124013499 0.87249600783553 0.067995624785528 5
0.99306845692129 0.11753739774207 0.067995625138024 5
0.67880074713123 0.73432250795824 0.18200437504525 5
0.93819133557898 0.3461170580086 0.067995625169135 5
0.11753739774207 0.99306845692129 0.18200437486198 5
0.27144045057756 0.96245523625271 0.1820043748239 5
0.4186597386575 0.90814317330872 0.18200437484144 5
0.55557023441118 0.83146961137272 0.18200437483575 5
0.83146961137272 0.55557023441118 0.067995625164253 5
0.73432250795824 0.67880074713123 0.067995624954751 5
0.99853515625002 0.054106762356917 0.1562500000003 5
0.054106762357136 0.99853515625001 0.093749999999763 5
0.98081085944234 0.19496168341493 0.067194189481356 5
0.98702766659959 0.16055025807197 0.13113711614279 5
0.96246749379218 0.27139698486425 0.0665522989088 5
0.19509032256046 0.98078528029496 0.18200437485286 5
0.61909395076036 0.78531692973724 0.18200437486238 5
0.67880074394836 0.73432251090046 0.06799562473653 5
0.78531692960336 0.61909395093019 0.067995625099231 5
0.34611705794812 0.93819133560129 0.18200437485146 5
0.48862124281084 0.87249600633699 0.18200437486566 5
0.90808830816284 0.4187787298538 0.06744848629248 5
0.92384946639391 0.38275601032993 0.1273896253434 5
0.87248665609646 0.48863793849191 0.067660559404598 5
0.73432251079894 0.67880074405819 0.18200437506302 5
0.83146961326022 0.55557023158634 0.18200437517817 5
0.55557023159022 0.83146961325763 0.067995624824525 5
0.27144044907553 0.96245523667632 0.067995624792146 5
0.41865973635163 0.90814317437174 0.067995624782612 5
0.12210840355815 0.99251676952104 0.065340975972685 5
0.99839383828844 0.056654599704446 0.093897766522946 5
0.056555776248394 0.99839944119222 0.15612836383322 5
0.98053327580809 0.19635298580123 0.18898465482044 5
0.9930684569998 0.11753739707867 0.19178051650015 5
0.16072774489587 0.98699878015157 0.12507667953917 5
0.97238098638728 0.23339926587822 0.12491916452797 5
0.94008196124448 0.34094853884823 0.1870098405772 5
0.90601880475151 0.4232374338792 0.18662017115429 5
0.9512739996325 0.30834684630004 0.1249864757504 5
0.23344536446521 0.97236992025139 0.12500521362305 5
0.70710678267525 0.70710677969785 0.12500521185407 5
0.76040596696568 0.64944804673121 0.1250052120236 5
0.309017003488 0.95105651333414 0.12499955073887 5
0.38268343430425 0.92387953170806 0.1249961728379 5
0.45399049886683 0.89100652463304 0.12499517536621 5
0.85264016522601 0.52249856329311 0.12500521458137 5
0.5224985635192 0.85264016508746 0.12499508114854 5
0.80901699539404 0.58778525088981 0.12500521278466 5
0.58778524487771 0.80901699976209 0.12499965820993 5
0.64944804921869 0.76040596484117 0.12500368046282 5
0.89100652358103 0.45399050093151 0.12494998215736 5
0.99488134271515 0.10105005649327 0.1250000000006 5
0.1064762024616 0.9943152509689 0.12488247877957 5
0.99872287322563 0.050523484598104 0.045297009460337 5
0.99885379946881 0.047865303579202 0.20792849953983 5
0.050517589565778 0.99872317142663 0.20470531679536 5
0.058448819018977 0.99829040642254 0.043275705614179 5
0.8838834745656 0.88388347840077 0.18199650900876 6
1.0338507190119 0.70260422059543 0.068003490912469 6
1.1137581560123 0.56748812314976 0.068003490937757 6
1.2198959526073 0.27267905092321 0.06800349090503 6
0.19554308069111 1.2346104258404 0.18199650910003 6
0.34873888152215 1.2003671073945 0.18199650909548 6
1.1761009616315 0.42342239908798 0.068003490921873 6
0.56748812314976 1.1137581560123 0.18199650906224 6
0.70260422059543 1.0338507190119 0.18199650908753 6
1.2444524557273 0.11763539192924 0.18199650871675 6
0.93763883873279 0.82663982973229 0.068003490873798 6
0.76604488502108 0.98776274182267 0.067541856259446 6
1.0759275327955 0.63630177131023 0.18199650876627 6
1.1471932814812 0.49643486473486 0.18199650873335 6
0.42331650463077 1.1761390805968 0.067541856376664 6
1.2003671068153 0.34873888351589 0.18199650866339 6
0.11763539192924 1.2444524557273 0.068003491283254 6
0.27267905247689 1.21989595226 0.068003491318388 6
0.63630177131023 1.0759275327955 0.06800349123373 6
0.98769376402218 0.76613381893225 0.18199650870097 6
1.248828125 0.05411390033039 0.093749999999763 6
0.054113900330177 1.248828125 0.1562500000003 6
1.2346363608354 0.19537926323735 0.18270030717409 6
1.2395587912402 0.16122655816906 0.11890218136649 6
1.2199105830066 0.27261359002914 0.18324020085867 6
0.19554308186271 1.2346104256548 0.068003491290167 6
0.82671547522304 0.93757214283849 0.067363819813996 6
0.79677776517001 0.96314339167679 0.12730821609996 6
0.93763883537724 0.82663983353841 0.18199650869974 6
1.1761009607132 0.42342240163858 0.18199650870384 6
0.70258822867889 1.0338615869263 0.067718108958943 6
0.49652741279823 1.1471532279255 0.067363819925371 6
0.46015300578796 1.1622216704503 0.12730821540561 6
1.0338507166047 0.70260422413751 0.18199650869488 6
0.56751105436927 1.1137464716751 0.067700254360257 6
1.1137581544868 0.56748812614374 0.18199650874792 6
0.34872031198396 1.2003725021883 0.067718109017509 6
0.88390169012612 0.88386526246493 0.067700184315917 6
0.9876937668647 0.76613381526769 0.068003490971313 6
1.0759275347309 0.63630176803772 0.068003490942069 6
0.27267905094269 1.2198959526029 0.1819965090701 6
0.63630176805786 1.075927534719 0.18199650904588 6
1.1471932827011 0.49643486191592 0.068003490938494 6
1.2003725944625 0.34871999435543 0.067551472973103 6
0.12222329697915 1.244010235358 0.18465532377209 6
1.2487070172675 0.056839994959751 0.15620717375726 6
0.056740139522516 1.2487115585943 0.093765828516335 6
1.2346846828128 0.19507366307993 0.062610480511897 6
1.2444524557879 0.11763539128767 0.058213988268312 6
0.16118353735952 1.2395643860987 0.12492638739283 6
1.2278679305549 0.2341801552542 0.12507789845071 6
0.75924602316733 0.99299822573084 0.18701181559933 6
0.41523254935101 1.1790173577855 0.18701181701756 6
0.5044014170771 1.1437129056064 0.18701181768157 6
0.83314098045673 0.93186700053366 0.18701181929314 6
1.2108305946612 0.31046621560538 0.12531148846581 6
0.23422664250378 1.2278590635498 0.12500333788264 6
0.66978349207196 1.0554099079258 0.12500333652742 6
0.60219209103718 1.0953833509289 0.12500333434909 6
1.1310338162661 0.53222411300358 0.12499666282788 6
1.1622206078794 0.46015568954471 0.12499666467228 6
0.31086235805755 1.2107289516415 0.1250033379592 6
1.1888317165147 0.38623716782404 0.12502322732797 6
1.0953833509303 0.6021920910346 0.12499666051259 6
1.0554099079367 0.6697834920547 0.12499665913874 6
1.0112712442738 0.73473156356922 0.12499666078847 6
0.96314155496682 0.7967799853762 0.12499666133143 6
0.91121078621078 0.85568388035134 0.12499665729848 6
0.85568388433415 0.91121078247067 0.12495316140896 6
0.53222411592356 1.1310338148921 0.12495315961911 6
0.38627124406662 1.1888206450122 0.12495315834541 6
0.73473156721511 1.0112712416249 0.12495315814348 6
1.245903931194 0.10111080177414 0.12499999999963 6
0.10075566030425 1.2459327016002 0.12500000000058 6
1.2489738695931 0.050638651972838 0.20460816936489 6
1.2490830277691 0.047870551900799 0.042070820762514 6
0.050632786402339 1.2489741073942 0.045389463658713 6
0.058796869005301 1.2486164055446 0.20664678348038 6
1.1185964383856 0.12585093867269 0.12499999989034 15
0.15013561032459 1.1133021826585 0.12680498847563 15
0.38873450063607 1.0537112873818 0.12230406573092 15
0.62395848701206 0.93381953093001 0.12168942359414 15
0.88198560685022 0.69530138587545 0.12169557811408 15
1.0810912877522 0.30445933860571 0.12627096542169 15
0.27200161829738 1.0935741154957 0.127321698446 15
0.97868974567538 0.54809592451075 0.12084459938231 15
0.76141963387192 0.82369899703968 0.12084324959063 15
1.0380803708528 0.43671628236518 0.1262362367438 15
0.50503115896728 1.0059330691246 0.12468799024763 15
0.082554586113427 1.1632489673664 0.096538630169689 15
0.078386180599314 1.0803439586205 0.1577888982957 15
1.0712258438946 0.20896533275276 0.15099274413646 15
0.96235843060752 0.64258257252297 0.14749023616145 15
1.1427788856941 0.2107613725905 0.086606857870839 15
0.71759080944819 0.90998185339884 0.10327330154846 15
0.84731943650901 0.78378874582382 0.15655627208872 15
1.1696263735749 0.078768724531146 0.17126686030225 15
1.1702834262755 0.07889987542905 0.07885232459861 15
0.21884487437538 1.1503526465135 0.084235807819213 15
1.0752661419553 0.073910536518155 0.083216065093975 15
0.091815573141892 1.0836670782696 0.076326017434017 15
0.80458342621292 0.73544744127118 0.089793071431456 15
0.66521292819777 0.86210154875728 0.16160766242787 15
0.091223406451176 1.1582097749933 0.17718262952608 15
1.0741657922355 0.072873242658035 0.16128828451449 15
0.90005013283766 0.61241072617444 0.087983948853719 15
0.21782903693839 1.1463760465306 0.17199378473549 15
1.1509480968268 0.18890535560618 0.17138166947477 15
1.0979263074822 0.38306674226148 0.16559449435208 15
1.0244290397503 0.35914375423991 0.085072955815068 15
0.20490478058591 1.0642183380211 0.083384571935745 15
0.34620071859947 1.1146279099754 0.16754331389176 15
0.31837459423223 1.0331530358864 0.16746263833847 15
0.31535012128765 1.0351079374552 0.081568876466508 15
0.20430466855764 1.0633112920892 0.1676482236763 15
0.34083807670435 1.1166077109625 0.082339061660686 15
0.88149360773676 0.62481218790426 0.17114964400559 15
1.0516297842708 0.516865239569 0.15245900175998 15
1.1090486989148 0.37185255493548 0.081416688274684 15
0.59867488341818 1.012303948042 0.14077195284972 15
1.0616075424484 0.16746987316997 0.077104666040449 15
0.97687479342125 0.47790471203361 0.1710685669559 15
0.97377942449344 0.4719340023742 0.081823022943522 15
0.46707380832756 1.0806321878242 0.10911508040523 15
0.68586766690449 0.83404168586387 0.084790241224058 15
0.75966038703709 0.75966038385627 0.17657255157007 15
0.8163092405354 0.69719395293049 0.17459265445563 15
0.54629749152013 0.93812808658595 0.16498067217464 15
0.41103873490623 0.99233528544001 0.17629060253864 15
0.42935227713442 0.9861719924124 0.095228408176959 15
0.54967937598141 0.93048958785401 0.080288921588741 15
0.95200681147427 0.68593360097904 0.076358818543303 15
1.0398668959617 0.24967717653693 0.081660115818462 15
0.88043536329153 0.76820034529488 0.082084623733377 15
1.1480580469015 0.26570743295909 0.14794686378444 15
0.68952568195541 0.95630057753642 0.16328953265452 15
1.021915311702 0.34703947288983 0.16832100083583 15
0.92113392369324 0.55393632937204 0.1782797587848 15
0.8271091763686 0.82769496400106 0.074989725103107 15
1.0421080501408 0.53270108768821 0.074695152003661 15
0.99722954069374 0.61570629795678 0.078312904548866 15

Edges
122
2 9 4
9 10 4
10 11 4
11 12 4
12 13 4
13 14 4
14 15 4
15 16 4
16 17 4
17 18 4
18 19 4
19 20 4
20 21 4
21 22 4
22 23 4
23 24 4
24 25 4
25 26 4
26 27 4
27 28 4
28 29 4
29 30 4
30 31 4
31 32 4
32 3 4
4 33 3
33 34 3
34 35 3
35 36 3
36 37 3
37 38 3
38 39 3
39 40 3
40 41 3
41 42 3
42 43 3
43 44 3
44 45 3
45 46 3
46 47 3
47 48 3
48 49 3
49 50 3
50 51 3
51 52 3
52 53 3
53 54 3
54 55 3
55 56 3
56 1 3
6 57 13
57 58 13
58 59 13
59 60 13
60 61 13
61 62 13
62 63 13
63 64 13
64 65 13
65 66 13
66 67 13
67 68 13
68 69 13
69 70 13
70 71 13
71 72 13
72 73 13
73 74 13
74 75 13
75 7 13
8 76 14
76 77 14
77 78 14
78 79 14
79 80 14
80 81 14
81 82 14
82 83 14
83 84 14
84 85 14
85 86 14
86 87 14
87 88 14
88 89 14
89 90 14
90 91 14
91 92 14
92 93 14
93 94 14
94 5 14
3 95 2
95 96 2
96 97 2
97 4 2
4 98 8
98 99 8
99 100 8
100 5 8
5 101 7
101 102 7
102 103 7
103 6 7
6 104 8
104 105 8
105 106 8
106 3 8
2 107 9
107 108 9
108 109 9
109 7 9
7 110 10
110 111 10
111 112 10
112 8 10
8 113 9
113 114 9
114 115 9
115 1 9
1 116 1
116 117 1
117 118 1
118 2 1

Triangles
842
1 132 115 1
116 132 1 1
107 131 2 1
2 131 118 1
7 130 109 1
110 130 7 1
8 129 112 1
113 129 8 1
108 126 107 1
126 131 107 1
109 122 108 1
122 126 108 1
109 130 122 1
111 125 110 1
125 130 110 1
112 119 111 1
119 125 111 1
112 129 119 1
114 127 113 1
127 129 113 1
115 121 114 1
121 127 114 1
115 132 121 1
117 123 116 1
123 132 116 1
118 120 117 1
120 123 117 1
118 131 120 1
119 128 125 1
127 128 119 1
119 129 127 1
120 124 123 1
120 126 124 1
120 131 126 1
123 124 121 1
121 132 123 1
124 127 121 1
124 126 122 1
122 128 124 1
125 128 122 1
122 130 125 1
124 128 127 1
95 145 3 2
3 145 106 2
4 143 97 2
98 143 4 2
5 146 100 2
101 146 5 2
6 144 103 2
104 144 6 2
96 137 95 2
137 145 95 2
97 133 96 2
133 137 96 2
97 143 133 2
99 140 98 2
140 143 98 2
100 136 99 2
136 140 99 2
100 146 136 2
102 139 101 2
139 146 101 2
103 134 102 2
134 139 102 2
103 144 134 2
105 141 104 2
141 144 104 2
106 135 105 2
135 141 105 2
106 145 135 2
133 138 137 2
133 140 138 2
133 143 140 2
134 142 139 2
141 142 134 2
134 144 141 2
137 138 135 2
135 145 137 2
138 141 135 2
138 140 136 2
136 142 138 2
139 142 136 2
136 146 139 2
138 142 141 2
56 213 1 3
1 213 115 3
4 214 33 3
98 214 4 3
94 211 5 3
5 211 100 3
8 212 76 3
113 212 8 3
33 192 34 3
33 214 192 3
34 203 35 3
192 203 34 3
35 153 36 3
35 203 153 3
36 196 37 3
153 196 36 3
37 197 38 3
196 197 37 3
38 164 39 3
38 197 164 3
39 206 40 3
164 206 39 3
40 209 41 3
206 209 40 3
41 161 42 3
41 209 161 3
42 187 43 3
161 187 42 3
43 162 44 3
43 187 162 3
44 205 45 3
162 205 44 3
45 208 46 3
205 208 45 3
46 160 47 3
46 208 160 3
47 188 48 3
160 188 47 3
48 163 49 3
48 188 163 3
49 207 50 3
163 207 49 3
50 210 51 3
207 210 50 3
51 159 52 3
51 210 159 3
52 186 53 3
159 186 52 3
53 165 54 3
53 186 165 3
54 204 55 3
165 204 54 3
55 190 56 3
55 204 190 3
190 213 56 3
76 147 77 3
76 212 147 3
77 168 78 3
147 168 77 3
78 152 79 3
78 168 152 3
79 173 80 3
152 173 79 3
80 156 81 3
80 173 156 3
81 174 82 3
156 174 81 3
82 151 83 3
82 174 151 3
83 172 84 3
151 172 83 3
84 155 85 3
84 172 155 3
85 176 86 3
155 176 85 3
86 149 87 3
86 176 149 3
87 175 88 3
149 175 87 3
88 154 89 3
88 175 154 3
89 177 90 3
154 177 89 3
90 150 91 3
90 177 150 3
91 170 92 3
150 170 91 3
92 166 93 3
92 170 166 3
93 148 94 3
93 166 148 3
148 211 94 3
99 157 98 3
157 214 98 3
100 185 99 3
99 185 157 3
100 211 185 3
114 184 113 3
184 212 113 3
115 158 114 3
158 184 114 3
115 213 158 3
147 169 168 3
147 191 169 3
184 191 147 3
147 212 184 3
166 167 148 3
167 189 148 3
148 189 185 3
185 211 148 3
149 194 175 3
176 200 149 3
149 200 194 3
150 171 170 3
150 202 171 3
177 202 150 3
151 195 172 3
174 201 151 3
151 201 195 3
168 198 152 3
152 193 173 3
152 198 193 3
167 199 153 3
153 203 167 3
153 199 196 3
175 182 154 3
154 178 177 3
154 182 178 3
172 181 155 3
155 180 176 3
155 181 180 3
173 183 156 3
156 179 174 3
156 183 179 3
185 189 157 3
189 192 157 3
192 214 157 3
158 191 184 3
190 191 158 3
158 213 190 3
183 193 159 3
159 210 183 3
159 193 186 3
181 195 160 3
160 208 181 3
160 195 188 3
182 194 161 3
161 209 182 3
161 194 187 3
162 200 180 3
180 205 162 3
187 200 162 3
163 201 179 3
179 207 163 3
188 201 163 3
164 202 178 3
178 206 164 3
197 202 164 3
165 198 169 3
169 204 165 3
186 198 165 3
166 199 167 3
170 199 166 3
167 203 189 3
169 198 168 3
169 191 190 3
190 204 169 3
171 199 170 3
171 197 196 3
196 199 171 3
171 202 197 3
172 195 181 3
173 193 183 3
179 201 174 3
175 194 182 3
180 200 176 3
178 202 177 3
182 209 178 3
178 209 206 3
183 210 179 3
179 210 207 3
181 208 180 3
180 208 205 3
193 198 186 3
194 200 187 3
195 201 188 3
189 203 192 3
9 282 2 4
2 282 107 4
3 281 32 4
106 281 3 4
57 279 6 4
6 279 104 4
7 280 75 4
109 280 7 4
10 258 9 4
258 282 9 4
11 271 10 4
10 271 258 4
12 221 11 4
221 271 11 4
13 265 12 4
12 265 221 4
14 264 13 4
264 265 13 4
15 232 14 4
232 264 14 4
16 274 15 4
15 274 232 4
17 278 16 4
16 278 274 4
18 229 17 4
229 278 17 4
19 255 18 4
18 255 229 4
20 230 19 4
230 255 19 4
21 272 20 4
20 272 230 4
22 277 21 4
21 277 272 4
23 228 22 4
228 277 22 4
24 256 23 4
23 256 228 4
25 231 24 4
231 256 24 4
26 273 25 4
25 273 231 4
27 276 26 4
26 276 273 4
28 227 27 4
227 276 27 4
29 254 28 4
28 254 227 4
30 233 29 4
233 254 29 4
31 270 30 4
30 270 233 4
32 260 31 4
260 270 31 4
32 281 260 4
58 215 57 4
215 279 57 4
59 234 58 4
58 234 215 4
60 220 59 4
220 234 59 4
61 242 60 4
60 242 220 4
62 224 61 4
224 242 61 4
63 244 62 4
62 244 224 4
64 219 63 4
219 244 63 4
65 241 64 4
64 241 219 4
66 223 65 4
223 241 65 4
67 240 66 4
66 240 223 4
68 217 67 4
217 240 67 4
69 243 68 4
68 243 217 4
70 222 69 4
222 243 69 4
71 245 70 4
70 245 222 4
72 218 71 4
218 245 71 4
73 237 72 4
72 237 218 4
74 236 73 4
236 237 73 4
75 216 74 4
216 236 74 4
75 280 216 4
104 252 105 4
104 279 252 4
105 226 106 4
105 252 226 4
226 281 106 4
107 225 108 4
107 282 225 4
108 253 109 4
225 253 108 4
253 280 109 4
234 235 215 4
235 257 215 4
215 257 252 4
252 279 215 4
216 239 236 4
216 259 239 4
253 259 216 4
216 280 253 4
217 267 240 4
243 261 217 4
261 267 217 4
237 238 218 4
238 269 218 4
218 269 245 4
241 263 219 4
219 268 244 4
263 268 219 4
220 266 234 4
242 262 220 4
262 266 220 4
239 271 221 4
221 275 239 4
265 275 221 4
222 249 243 4
245 248 222 4
248 249 222 4
240 247 223 4
223 250 241 4
247 250 223 4
224 251 242 4
244 246 224 4
246 251 224 4
225 259 253 4
258 259 225 4
225 282 258 4
252 257 226 4
257 260 226 4
260 281 226 4
227 262 251 4
251 276 227 4
254 262 227 4
228 263 250 4
250 277 228 4
256 263 228 4
229 261 249 4
249 278 229 4
255 261 229 4
247 267 230 4
230 272 247 4
230 267 255 4
246 268 231 4
231 273 246 4
231 268 256 4
248 269 232 4
232 274 248 4
232 269 264 4
235 266 233 4
233 270 235 4
233 266 254 4
234 266 235 4
235 270 257 4
236 275 237 4
239 275 236 4
237 275 238 4
238 265 264 4
264 269 238 4
238 275 265 4
239 259 258 4
258 271 239 4
240 267 247 4
250 263 241 4
251 262 242 4
249 261 243 4
244 268 246 4
245 269 248 4
246 276 251 4
273 276 246 4
247 277 250 4
272 277 247 4
248 278 249 4
274 278 248 4
254 266 262 4
255 267 261 4
256 268 263 4
257 270 260 4
5 345 94 5
101 345 5 5
57 344 6 5
6 344 103 5
7 343 75 5
110 343 7 5
76 342 8 5
8 342 112 5
58 293 57 5
293 344 57 5
59 304 58 5
58 304 293 5
60 294 59 5
294 304 59 5
61 308 60 5
60 308 294 5
62 295 61 5
295 308 61 5
63 309 62 5
62 309 295 5
64 296 63 5
296 309 63 5
65 305 64 5
64 305 296 5
66 291 65 5
291 305 65 5
67 313 66 5
66 313 291 5
68 284 67 5
284 313 67 5
69 314 68 5
68 314 284 5
70 285 69 5
285 314 69 5
71 326 70 5
70 326 285 5
72 325 71 5
325 326 71 5
73 286 72 5
286 325 72 5
74 321 73 5
73 321 286 5
75 322 74 5
74 322 321 5
75 343 322 5
77 290 76 5
290 342 76 5
78 301 77 5
77 301 290 5
79 303 78 5
78 303 301 5
80 292 79 5
292 303 79 5
81 310 80 5
80 310 292 5
82 312 81 5
81 312 310 5
83 297 82 5
297 312 82 5
84 307 83 5
83 307 297 5
85 298 84 5
298 307 84 5
86 306 85 5
85 306 298 5
87 283 86 5
283 306 86 5
88 315 87 5
87 315 283 5
89 289 88 5
289 315 88 5
90 317 89 5
89 317 289 5
91 288 90 5
288 317 90 5
92 316 91 5
91 316 288 5
93 287 92 5
287 316 92 5
94 318 93 5
93 318 287 5
94 345 318 5
102 300 101 5
300 345 101 5
103 320 102 5
102 320 300 5
103 344 320 5
111 299 110 5
299 343 110 5
112 319 111 5
111 319 299 5
112 342 319 5
283 338 306 5
315 337 283 5
337 338 283 5
284 330 313 5
314 336 284 5
284 336 330 5
285 334 314 5
326 339 285 5
285 339 334 5
321 324 286 5
324 327 286 5
286 327 325 5
287 328 316 5
318 323 287 5
323 328 287 5
316 331 288 5
288 332 317 5
331 332 288 5
289 335 315 5
317 333 289 5
333 335 289 5
301 302 290 5
302 340 290 5
290 340 319 5
319 342 290 5
291 338 305 5
313 329 291 5
329 338 291 5
292 327 303 5
310 311 292 5
311 327 292 5
304 323 293 5
293 341 320 5
320 344 293 5
323 341 293 5
294 328 304 5
308 331 294 5
294 331 328 5
295 332 308 5
309 333 295 5
295 333 332 5
305 337 296 5
296 335 309 5
296 337 335 5
307 336 297 5
297 334 312 5
297 336 334 5
306 329 298 5
298 330 307 5
329 330 298 5
319 340 299 5
299 340 322 5
322 343 299 5
300 341 318 5
318 345 300 5
320 341 300 5
301 324 302 5
303 324 301 5
321 322 302 5
302 324 321 5
322 340 302 5
303 327 324 5
304 328 323 5
305 338 337 5
306 338 329 5
330 336 307 5
308 332 331 5
309 335 333 5
310 339 311 5
312 339 310 5
311 326 325 5
325 327 311 5
311 339 326 5
334 339 312 5
313 330 329 5
334 336 314 5
335 337 315 5
328 331 316 5
332 333 317 5
318 341 323 5
1 421 56 6
116 421 1 6
9 420 2 6
2 420 118 6
3 423 32 6
95 423 3 6
33 422 4 6
4 422 97 6
10 355 9 6
355 420 9 6
11 368 10 6
10 368 355 6
12 370 11 6
11 370 368 6
13 361 12 6
361 370 12 6
14 375 13 6
13 375 361 6
15 359 14 6
359 375 14 6
16 381 15 6
15 381 359 6
17 358 16 6
358 381 16 6
18 379 17 6
17 379 358 6
19 365 18 6
365 379 18 6
20 374 19 6
19 374 365 6
21 346 20 6
346 374 20 6
22 400 21 6
21 400 346 6
23 397 22 6
397 400 22 6
24 354 23 6
354 397 23 6
25 387 24 6
24 387 354 6
26 353 25 6
353 387 25 6
27 399 26 6
26 399 353 6
28 398 27 6
398 399 27 6
29 351 28 6
351 398 28 6
30 386 29 6
29 386 351 6
31 350 30 6
350 386 30 6
32 390 31 6
31 390 350 6
32 423 390 6
34 362 33 6
362 422 33 6
35 371 34 6
34 371 362 6
36 363 35 6
363 371 35 6
37 382 36 6
36 382 363 6
38 360 37 6
360 382 37 6
39 377 38 6
38 377 360 6
40 380 39 6
39 380 377 6
41 364 40 6
364 380 40 6
42 376 41 6
41 376 364 6
43 357 42 6
357 376 42 6
44 372 43 6
43 372 357 6
45 383 44 6
44 383 372 6
46 356 45 6
356 383 45 6
47 384 46 6
46 384 356 6
48 347 47 6
347 384 47 6
49 385 48 6
48 385 347 6
50 348 49 6
348 385 49 6
51 388 50 6
50 388 348 6
52 352 51 6
352 388 51 6
53 389 52 6
52 389 352 6
54 349 53 6
349 389 53 6
55 393 54 6
54 393 349 6
56 394 55 6
55 394 393 6
56 421 394 6
96 367 95 6
367 423 95 6
97 392 96 6
96 392 367 6
97 422 392 6
117 366 116 6
366 421 116 6
118 391 117 6
117 391 366 6
118 420 391 6
346 413 374 6
400 414 346 6
346 414 413 6
347 411 384 6
385 410 347 6
410 411 347 6
348 409 385 6
388 405 348 6
405 409 348 6
349 401 389 6
393 396 349 6
396 401 349 6
350 402 386 6
390 395 350 6
395 402 350 6
386 407 351 6
351 416 398 6
407 416 351 6
352 406 388 6
389 408 352 6
352 408 406 6
353 404 387 6
399 415 353 6
353 415 404 6
387 403 354 6
354 417 397 6
403 417 354 6
368 369 355 6
369 418 355 6
355 418 391 6
391 420 355 6
356 413 383 6
384 412 356 6
412 413 356 6
372 373 357 6
373 417 357 6
357 417 376 6
379 410 358 6
358 409 381 6
358 410 409 6
359 406 375 6
381 405 359 6
405 406 359 6
377 378 360 6
378 416 360 6
360 416 382 6
361 401 370 6
375 408 361 6
361 408 401 6
371 395 362 6
362 419 392 6
392 422 362 6
395 419 362 6
363 402 371 6
382 407 363 6
363 407 402 6
376 403 364 6
364 404 380 6
403 404 364 6
374 412 365 6
365 411 379 6
365 412 411 6
391 418 366 6
366 418 394 6
394 421 366 6
367 419 390 6
390 423 367 6
392 419 367 6
368 396 369 6
370 396 368 6
393 394 369 6
369 396 393 6
394 418 369 6
370 401 396 6
371 402 395 6
372 414 373 6
383 414 372 6
373 400 397 6
397 417 373 6
373 414 400 6
374 413 412 6
406 408 375 6
376 417 403 6
377 415 378 6
380 415 377 6
378 399 398 6
398 416 378 6
378 415 399 6
379 411 410 6
404 415 380 6
381 409 405 6
382 416 407 6
413 414 383 6
411 412 384 6
409 410 385 6
402 407 386 6
387 404 403 6
388 406 405 6
401 408 389 6
390 419 395 6

Tetrahedra
1484
209 380 206 465 15
389 186 349 480 15
346 272 432 441 15
277 400 432 440 15
277 432 250 440 15
380 434 206 465 15
376 364 161 465 15
376 161 427 465 15
189 435 425 444 15
255 365 428 441 15
216 437 424 450 15
340 424 302 450 15
425 435 395 444 15
315 175 427 470 15
165 429 439 480 15
216 424 259 450 15
293 425 341 436 15
203 362 192 435 15
400 440 277 481 15
186 429 165 480 15
349 186 165 480 15
346 272 400 432 15
341 425 323 446 15
371 395 435 444 15
191 169 424 443 15
165 439 349 480 15
371 435 203 444 15
412 428 365 441 15
302 424 437 450 15
250 440 432 448 15
209 161 364 465 15
209 364 380 465 15
365 255 428 438 15
210 388 433 464 15
315 427 337 470 15
371 362 203 435 15
204 393 439 443 15
373 440 400 481 15
323 425 341 460 15
322 437 216 450 15
395 449 425 452 15
203 435 189 444 15
293 341 425 460 15
203 192 189 435 15
414 346 432 441 15
358 431 278 438 15
418 442 424 443 15
228 400 277 481 15
251 426 227 469 15
369 424 439 443 15
362 371 395 435 15
255 374 365 441 15
278 431 358 463 15
277 400 272 432 15
227 426 398 469 15
237 286 429 437 15
440 448 250 481 15
302 437 322 450 15
227 398 426 457 15
369 439 393 443 15
374 412 365 441 15
302 424 340 466 15
369 393 394 443 15
365 428 411 438 15
376 427 161 440 15
324 429 286 437 15
400 414 346 432 15
369 424 418 442 15
247 432 272 441 15
414 372 432 440 15
312 431 174 451 15
406 433 388 464 15
350 449 395 452 15
259 442 424 453 15
216 239 259 424 15
293 323 341 460 15
341 323 318 446 15
395 435 425 449 15
209 465 178 476 15
322 340 302 450 15
358 431 409 463 15
418 424 369 443 15
204 190 393 443 15
276 251 227 469 15
277 272 247 432 15
176 432 306 447 15
210 433 388 485 15
409 431 358 486 15
338 448 291 471 15
239 424 216 437 15
295 224 473 474 15
414 373 372 440 15
338 432 448 471 15
431 438 358 486 15
276 227 399 469 15
424 442 259 450 15
432 440 372 484 15
323 446 425 456 15
169 439 424 443 15
399 353 273 434 15
191 443 424 445 15
412 411 365 428 15
293 425 436 460 15
424 442 369 453 15
341 436 425 446 15
239 424 437 453 15
302 437 424 466 15
178 465 434 476 15
389 349 401 480 15
407 386 430 457 15
393 190 394 443 15
334 431 312 451 15
237 429 286 482 15
372 414 432 484 15
374 255 230 441 15
154 317 289 476 15
191 445 424 466 15
407 430 386 452 15
399 353 434 469 15
296 448 427 473 15
386 452 430 457 15
206 434 380 469 15
283 149 315 470 15
223 291 448 471 15
353 273 434 465 15
378 426 398 457 15
398 426 378 469 15
194 427 175 470 15
425 435 189 446 15
315 427 175 476 15
307 428 172 447 15
259 424 239 453 15
210 433 183 464 15
376 427 403 465 15
378 426 416 461 15
419 435 395 449 15
215 436 425 460 15
340 445 424 450 15
307 172 428 451 15
373 400 397 481 15
427 448 337 470 15
251 426 469 474 15
427 440 376 481 15
232 433 359 454 15
306 432 329 447 15
162 372 440 484 15
177 475 317 476 15
414 441 432 484 15
219 448 296 473 15
389 401 464 480 15
350 390 395 449 15
124 424 442 443 15
399 227 398 469 15
359 433 232 463 15
273 276 399 434 15
337 335 296 427 15
191 190 169 443 15
433 463 388 485 15
408 454 429 480 15
165 429 198 439 15
360 378 416 461 15
306 432 176 470 15
424 443 124 445 15
361 454 408 480 15
276 399 434 469 15
311 433 467 482 15
380 364 404 465 15
364 376 403 465 15
315 149 175 470 15
219 427 448 473 15
359 433 406 454 15
173 310 292 455 15
124 442 424 450 15
411 438 428 477 15
174 431 312 468 15
388 463 405 485 15
267 255 428 441 15
215 257 425 436 15
177 317 154 476 15
378 416 426 457 15
162 440 432 484 15
336 307 330 428 15
337 315 335 427 15
295 224 309 473 15
337 427 296 448 15
411 428 412 477 15
167 189 425 444 15
173 310 455 468 15
323 318 446 456 15
197 461 426 469 15
197 360 461 469 15
276 434 251 469 15
250 448 432 471 15
397 400 228 481 15
311 467 326 482 15
424 445 124 450 15
165 186 198 429 15
295 473 434 474 15
350 270 449 452 15
286 429 324 482 15
324 429 437 478 15
338 448 432 470 15
410 358 438 486 15
424 445 340 466 15
251 469 434 474 15
366 123 391 443 15
407 430 444 461 15
428 441 412 479 15
283 315 337 470 15
379 229 365 438 15
191 424 169 466 15
425 444 395 452 15
249 278 431 438 15
209 178 182 476 15
312 334 339 431 15
134 320 139 436 15
425 436 257 449 15
330 428 307 447 15
410 409 358 486 15
338 329 306 432 15
295 333 434 473 15
241 291 305 448 15
399 398 378 469 15
237 321 286 437 15
159 352 388 464 15
293 436 215 460 15
307 428 336 451 15
369 442 355 453 15
173 156 310 468 15
233 452 386 457 15
403 427 376 481 15
434 473 224 474 15
261 428 255 438 15
233 430 452 457 15
417 376 440 481 15
273 246 276 434 15
407 444 363 461 15
359 406 433 463 15
296 427 335 473 15
429 198 439 478 15
210 159 388 464 15
199 444 430 461 15
361 408 401 480 15
315 335 427 476 15
376 161 357 440 15
392 137 133 435 15
365 229 255 438 15
352 406 388 464 15
327 429 324 478 15
249 431 278 463 15
250 223 448 471 15
338 432 306 470 15
224 244 309 473 15
380 404 434 465 15
151 297 312 451 15
332 426 331 474 15
416 426 457 461 15
327 324 429 482 15
223 291 241 448 15
429 454 408 464 15
311 326 325 482 15
312 431 339 468 15
178 475 177 476 15
311 292 310 455 15
215 425 235 460 15
332 331 426 475 15
350 270 390 449 15
311 455 310 468 15
351 254 386 457 15
167 425 446 456 15
176 306 298 447 15
369 439 424 453 15
206 380 377 469 15
336 428 330 472 15
428 438 261 462 15
415 434 353 469 15
233 266 430 457 15
295 309 333 473 15
329 432 338 471 15
140 157 435 446 15
429 454 265 480 15
407 444 430 452 15
119 319 125 450 15
322 236 216 437 15
339 431 334 483 15
228 250 448 481 15
158 184 127 443 15
327 286 324 482 15
194 440 427 470 15
274 358 381 463 15
197 171 426 461 15
153 363 444 461 15
192 422 214 435 15
233 430 266 452 15
353 415 404 434 15
380 404 415 434 15
237 429 275 437 15
218 325 245 482 15
273 246 434 465 15
225 122 253 442 15
275 429 265 480 15
427 465 268 481 15
183 433 210 485 15
426 458 331 474 15
311 433 455 468 15
167 425 189 446 15
257 235 215 425 15
312 174 151 451 15
194 161 427 440 15
328 456 430 459 15
174 431 201 451 15
328 458 430 460 15
270 257 449 452 15
176 180 432 447 15
186 193 429 464 15
253 259 442 450 15
178 434 206 469 15
361 265 454 480 15
277 247 250 432 15
180 432 447 484 15
332 288 331 475 15
287 316 166 456 15
298 155 176 447 15
407 351 386 457 15
267 441 428 472 15
197 426 202 469 15
431 451 334 483 15
357 161 187 440 15
412 477 428 479 15
406 454 433 464 15
170 456 316 459 15
367 137 435 449 15
167 203 189 444 15
323 456 425 460 15
259 258 442 453 15
219 427 263 448 15
355 369 418 442 15
322 321 236 437 15
142 134 139 436 15
426 474 332 475 15
214 143 157 435 15
391 442 418 443 15
246 251 276 434 15
404 353 434 465 15
233 386 254 457 15
184 127 443 445 15
430 458 328 459 15
178 177 154 476 15
178 434 475 476 15
294 220 458 460 15
399 415 353 469 15
181 428 477 479 15
434 469 178 475 15
354 256 387 465 15
143 214 422 435 15
321 324 286 437 15
294 304 234 460 15
139 142 436 446 15
137 392 367 435 15
357 187 372 440 15
338 305 291 448 15
150 426 459 475 15
150 426 171 459 15
128 124 445 450 15
336 462 428 472 15
262 458 426 474 15
275 437 429 480 15
260 390 270 449 15
202 178 469 475 15
329 447 432 471 15
191 184 443 445 15
249 438 431 483 15
158 127 121 443 15
251 262 426 474 15
122 253 442 450 15
123 124 120 443 15
140 136 157 446 15
321 237 236 437 15
219 268 427 473 15
379 365 411 438 15
225 253 259 442 15
153 444 199 461 15
122 225 126 442 15
158 191 184 443 15
139 320 300 436 15
139 436 300 446 15
390 419 395 449 15
380 434 415 469 15
413 441 414 484 15
256 268 465 481 15
414 413 346 441 15
170 166 316 456 15
300 146 139 446 15
185 157 136 446 15
200 432 162 440 15
430 456 328 460 15
294 458 328 460 15
431 468 179 485 15
417 376 357 440 15
432 440 200 470 15
262 457 426 458 15
298 307 172 447 15
192 214 157 435 15
428 462 261 472 15
269 463 433 467 15
264 359 375 454 15
167 444 425 456 15
267 230 255 441 15
124 442 120 443 15
327 455 429 478 15
266 430 457 458 15
331 458 426 459 15
358 278 379 438 15
194 175 149 470 15
424 439 169 466 15
191 147 445 466 15
430 459 199 461 15
150 459 288 475 15
210 183 159 464 15
183 433 455 464 15
179 431 174 468 15
430 444 199 456 15
268 465 427 473 15
359 405 406 463 15
172 428 181 447 15
311 455 433 482 15
403 376 417 481 15
366 391 418 443 15
246 224 434 473 15
316 456 328 459 15
311 467 433 468 15
157 143 140 435 15
175 427 182 476 15
355 271 368 453 15
206 377 164 469 15
334 312 297 451 15
428 447 330 472 15
367 145 137 449 15
193 198 186 429 15
140 435 136 446 15
402 444 407 452 15
269 467 433 482 15
178 206 164 469 15
197 171 202 426 15
278 358 274 463 15
294 234 220 460 15
247 432 441 471 15
336 451 428 462 15
422 192 362 435 15
148 446 318 456 15
339 467 431 483 15
136 138 142 446 15
261 267 255 428 15
407 457 430 461 15
119 445 319 450 15
430 456 199 459 15
258 355 442 453 15
297 151 307 451 15
429 455 193 478 15
430 458 266 460 15
224 309 62 295 15
382 363 196 461 15
183 468 433 485 15
154 317 89 289 15
219 305 296 448 15
198 429 193 478 15
119 125 128 450 15
183 455 433 468 15
265 429 238 454 15
273 231 246 465 15
333 475 434 476 15
354 256 465 481 15
234 294 59 304 15
287 92 166 316 15
408 389 401 464 15
176 298 306 85 15
298 172 155 447 15
219 268 263 427 15
172 195 428 451 15
377 360 197 469 15
83 307 297 151 15
219 296 305 64 15
315 283 87 149 15
322 302 321 437 15
141 226 252 449 15
367 435 419 449 15
267 428 261 472 15
403 465 427 481 15
173 292 310 80 15
395 444 402 452 15
269 245 467 482 15
246 434 224 474 15
298 306 329 447 15
297 312 82 151 15
265 275 238 429 15
241 65 305 291 15
172 298 84 307 15
434 465 246 473 15
412 384 477 479 15
429 455 327 482 15
231 246 465 473 15
299 125 319 450 15
423 281 145 449 15
293 58 304 460 15
138 435 137 449 15
162 372 187 440 15
382 407 363 461 15
409 463 431 485 15
141 252 436 449 15
153 196 363 461 15
431 467 339 468 15
229 379 278 438 15
381 358 409 463 15
231 387 256 465 15
263 427 268 481 15
270 235 257 452 15
181 428 195 477 15
335 473 427 476 15
138 436 435 449 15
307 151 172 451 15
409 485 431 486 15
141 135 226 449 15
150 202 171 426 15
341 300 436 446 15
251 434 246 474 15
250 432 247 471 15
200 432 180 484 15
162 432 200 484 15
150 202 426 475 15
269 232 433 463 15
167 446 148 456 15
171 459 426 461 15
238 429 237 482 15
309 224 62 244 15
317 154 89 177 15
305 219 241 448 15
58 293 215 460 15
201 431 179 485 15
308 331 458 474 15
202 469 426 475 15
431 467 248 483 15
362 395 419 435 15
181 447 428 479 15
246 244 224 473 15
92 170 166 316 15
136 435 138 446 15
181 477 160 479 15
85 176 298 155 15
367 423 145 449 15
275 237 238 429 15
294 234 59 220 15
200 176 432 470 15
359 406 375 454 15
156 173 310 80 15
65 241 223 291 15
83 172 307 151 15
305 219 64 241 15
315 87 175 149 15
175 194 182 427 15
172 195 181 428 15
155 298 84 172 15
202 178 164 469 15
431 485 201 486 15
425 452 235 460 15
249 248 431 463 15
193 455 429 464 15
264 232 359 454 15
269 232 463 467 15
279 215 344 436 15
125 111 319 119 15
312 82 151 174 15
139 134 102 320 15
388 159 51 352 15
266 458 220 460 15
161 182 194 427 15
431 463 248 467 15
444 425 456 460 15
201 174 179 431 15
303 79 292 455 15
200 176 180 432 15
258 271 355 453 15
145 281 135 449 15
316 287 328 456 15
127 124 443 445 15
329 338 291 471 15
263 448 427 481 15
233 254 266 457 15
376 364 41 161 15
308 332 331 474 15
300 345 146 446 15
318 287 166 456 15
201 451 431 486 15
300 320 341 436 15
293 344 215 436 15
419 367 392 435 15
378 398 416 457 15
236 239 216 437 15
122 442 124 450 15
141 436 138 449 15
269 218 245 482 15
273 353 25 387 15
136 139 146 446 15
346 374 230 441 15
266 452 430 460 15
145 135 137 449 15
356 46 384 479 15
144 344 134 436 15
368 271 370 453 15
309 63 296 473 15
304 294 328 460 15
317 90 288 475 15
119 128 445 450 15
234 304 58 460 15
418 369 394 443 15
189 435 157 446 15
148 318 166 456 15
327 303 455 478 15
170 199 456 459 15
329 330 447 472 15
256 268 231 465 15
444 452 425 460 15
269 433 232 454 15
342 212 147 445 15
368 369 355 453 15
375 361 264 454 15
58 215 234 460 15
430 444 456 460 15
402 407 386 452 15
411 412 384 477 15
318 93 166 287 15
375 361 13 264 15
230 272 346 441 15
429 439 437 478 15
333 434 473 476 15
275 453 437 480 15
19 255 374 365 15
336 284 462 472 15
229 261 255 438 15
339 467 311 468 15
386 351 29 254 15
354 256 24 387 15
150 288 90 475 15
134 344 320 436 15
133 137 138 435 15
329 447 471 472 15
440 448 427 470 15
250 223 241 448 15
211 185 146 446 15
195 428 451 477 15
141 138 135 449 15
192 157 189 435 15
437 439 429 480 15
248 463 232 467 15
469 474 426 475 15
43 372 357 187 15
329 313 330 472 15
336 330 284 472 15
226 135 281 449 15
296 63 219 473 15
197 202 164 469 15
377 197 164 469 15
147 290 342 445 15
383 372 44 484 15
355 10 368 271 15
185 136 146 446 15
146 345 211 446 15
430 452 444 460 15
139 136 142 446 15
253 216 259 450 15
143 133 140 435 15
249 431 248 483 15
159 51 210 388 15
457 459 430 461 15
148 93 166 318 15
457 458 430 459 15
186 53 389 349 15
328 458 331 459 15
260 270 257 449 15
329 471 313 472 15
249 462 438 483 15
46 160 384 479 15
152 193 455 478 15
152 79 303 455 15
451 462 334 483 15
292 79 173 455 15
393 349 204 439 15
198 466 439 478 15
370 368 11 271 15
349 393 204 54 15
359 232 381 463 15
396 439 369 453 15
194 187 161 440 15
364 209 41 161 15
256 263 268 481 15
71 325 326 245 15
380 39 206 377 15
238 454 429 482 15
350 395 402 452 15
325 71 218 245 15
413 412 441 479 15
279 144 252 436 15
334 451 336 462 15
177 90 317 475 15
138 137 135 449 15
339 285 467 483 15
37 360 382 461 15
248 278 274 463 15
49 348 385 485 15
181 195 160 477 15
123 391 120 117 15
137 392 133 96 15
141 252 144 436 15
412 374 413 441 15
435 436 425 449 15
227 399 27 276 15
277 228 22 400 15
290 340 445 466 15
279 344 144 436 15
426 459 457 461 15
343 322 280 450 15
426 458 457 459 15
18 229 365 379 15
236 237 275 437 15
249 278 248 463 15
177 150 90 475 15
176 155 180 447 15
283 306 86 470 15
244 63 309 473 15
131 225 282 442 15
285 339 334 483 15
15 381 359 232 15
312 310 81 468 15
231 273 25 387 15
383 44 205 484 15
438 451 431 483 15
379 410 358 438 15
178 202 177 475 15
359 375 14 264 15
160 477 384 479 15
151 174 201 451 15
91 316 288 459 15
322 216 280 450 15
126 124 122 442 15
262 242 458 474 15
176 86 306 470 15
330 307 298 447 15
127 124 121 443 15
233 386 29 254 15
370 265 361 480 15
91 288 150 459 15
312 81 174 468 15
127 128 124 445 15
324 437 302 478 15
278 17 358 379 15
408 454 406 464 15
425 436 435 446 15
416 457 407 461 15
357 372 373 440 15
42 357 376 161 15
131 420 120 442 15
244 219 63 473 15
437 466 302 478 15
303 152 455 478 15
370 271 221 453 15
111 299 125 319 15
232 274 381 463 15
321 322 236 74 15
185 189 157 446 15
319 445 340 450 15
37 197 360 461 15
328 456 323 460 15
46 356 208 479 15
322 216 236 74 15
321 286 73 237 15
280 253 130 450 15
295 333 332 475 15
372 162 44 484 15
362 392 422 435 15
195 477 451 486 15
410 438 411 477 15
361 265 264 454 15
294 60 308 458 15
196 153 199 461 15
281 423 260 449 15
255 230 19 374 15
120 420 391 442 15
231 465 268 473 15
152 173 79 455 15
407 402 363 444 15
60 242 308 458 15
256 231 24 387 15
102 300 139 320 15
333 473 335 476 15
170 199 166 456 15
231 268 246 473 15
192 203 34 362 15
327 455 311 482 15
265 13 361 264 15
372 43 162 187 15
252 257 436 449 15
398 399 27 227 15
397 22 228 400 15
207 348 49 485 15
18 229 255 365 15
434 474 469 475 15
136 140 138 435 15
15 381 232 274 15
10 355 258 271 15
128 122 124 450 15
263 228 448 481 15
163 49 385 485 15
130 253 122 450 15
337 448 338 470 15
234 266 220 460 15
394 213 421 443 15
349 165 204 439 15
266 457 262 458 15
152 198 193 478 15
54 204 349 165 15
171 199 459 461 15
184 191 147 445 15
259 239 258 453 15
269 433 454 482 15
295 332 474 475 15
198 168 439 466 15
267 471 441 472 15
126 225 131 442 15
349 186 53 165 15
158 127 184 114 15
76 147 342 212 15
17 278 229 379 15
205 44 162 484 15
314 334 336 462 15
297 307 336 451 15
249 261 438 462 15
147 290 445 466 15
46 208 160 479 15
131 282 420 442 15
141 142 138 436 15
167 189 148 446 15
108 225 122 253 15
299 130 125 450 15
410 411 347 477 15
367 419 390 449 15
391 123 366 117 15
164 206 39 377 15
168 169 439 466 15
293 320 344 436 15
42 357 161 187 15
302 466 301 478 15
432 448 440 470 15
341 318 300 446 15
252 215 279 436 15
158 121 127 114 15
371 35 363 444 15
221 370 11 271 15
363 196 36 382 15
337 296 305 448 15
195 188 477 486 15
424 439 437 453 15
132 123 366 443 15
119 129 342 445 15
395 371 402 444 15
354 465 403 481 15
121 132 213 443 15
88 289 315 476 15
392 137 367 96 15
324 302 301 478 15
283 86 149 470 15
196 37 382 461 15
319 340 299 450 15
176 149 86 470 15
194 200 440 470 15
410 438 477 486 15
360 197 38 377 15
409 385 485 486 15
88 315 175 476 15
147 342 290 76 15
293 341 320 436 15
183 455 193 464 15
263 228 250 448 15
334 462 314 483 15
421 213 132 443 15
158 121 213 443 15
156 81 310 468 15
352 52 389 464 15
198 168 466 478 15
243 462 249 483 15
156 174 81 468 15
170 91 150 459 15
73 236 321 237 15
122 126 225 108 15
437 439 424 466 15
293 304 323 460 15
163 207 49 485 15
240 471 267 472 15
217 261 462 472 15
199 444 167 456 15
91 170 316 459 15
278 249 229 438 15
319 119 342 445 15
438 462 451 483 15
163 201 485 486 15
226 141 252 105 15
303 327 324 478 15
383 208 356 484 15
251 242 262 474 15
221 453 275 480 15
287 318 323 456 15
454 455 433 464 15
432 447 441 471 15
348 210 388 485 15
264 14 359 232 15
203 35 371 444 15
413 479 441 484 15
433 468 463 485 15
215 252 257 436 15
157 99 185 136 15
147 191 169 466 15
242 308 458 474 15
343 280 130 450 15
410 477 347 486 15
135 141 226 105 15
221 370 453 480 15
350 386 30 452 15
220 60 294 458 15
37 196 197 461 15
60 220 242 458 15
253 280 216 450 15
371 34 203 362 15
331 328 294 458 15
275 265 221 480 15
279 57 344 215 15
187 200 162 440 15
441 447 432 484 15
316 328 331 459 15
239 437 275 453 15
346 413 374 441 15
318 148 345 446 15
311 339 326 467 15
390 260 423 449 15
186 389 52 464 15
99 157 140 136 15
183 179 468 485 15
221 265 370 480 15
57 293 344 215 15
439 466 437 478 15
393 369 396 439 15
463 467 431 468 15
433 467 463 468 15
333 335 289 476 15
356 479 413 484 15
421 132 366 443 15
72 237 286 482 15
431 451 438 486 15
311 327 292 455 15
208 479 356 484 15
373 417 440 481 15
195 451 201 486 15
251 246 224 474 15
282 258 420 442 15
404 387 353 465 15
354 387 403 465 15
396 453 370 480 15
305 338 337 448 15
310 339 311 468 15
431 463 468 485 15
269 248 232 467 15
348 388 405 485 15
129 127 184 445 15
184 212 129 445 15
205 208 383 484 15
429 455 454 464 15
383 356 413 484 15
194 200 187 440 15
385 163 485 486 15
210 348 207 485 15
352 408 406 464 15
141 144 134 436 15
148 211 345 446 15
198 168 169 439 15
380 415 377 469 15
416 351 407 457 15
396 369 368 453 15
153 363 35 444 15
396 368 370 453 15
334 297 336 451 15
261 229 249 438 15
180 447 479 484 15
396 349 439 480 15
302 324 321 437 15
298 329 330 447 15
314 284 68 462 15
372 383 414 484 15
222 467 285 483 15
222 245 70 467 15
433 455 454 482 15
411 410 379 438 15
375 406 408 454 15
350 30 270 452 15
309 335 333 473 15
153 196 36 363 15
390 31 260 270 15
214 192 33 422 15
12 361 370 265 15
377 378 360 469 15
154 289 88 476 15
299 343 130 450 15
175 154 88 476 15
48 385 347 486 15
367 390 423 449 15
162 200 180 484 15
323 328 287 456 15
254 262 266 457 15
405 463 409 485 15
386 233 30 452 15
454 455 429 482 15
249 243 261 462 15
427 473 465 476 15
281 260 226 449 15
361 375 408 454 15
129 212 342 445 15
417 357 373 440 15
352 159 52 464 15
203 153 35 444 15
155 172 181 447 15
348 409 385 485 15
183 193 159 464 15
48 347 188 486 15
416 407 382 461 15
195 201 188 486 15
171 196 199 461 15
284 217 68 462 15
392 362 419 435 15
239 271 258 453 15
283 337 338 470 15
441 447 428 472 15
396 439 453 480 15
223 250 247 471 15
197 164 38 377 15
274 16 381 358 15
217 267 261 472 15
266 235 452 460 15
388 50 210 348 15
184 147 212 445 15
72 286 325 482 15
304 328 323 460 15
356 383 45 208 15
248 467 222 483 15
326 70 245 467 15
292 327 303 455 15
413 414 383 484 15
163 201 179 485 15
385 409 410 486 15
124 126 120 442 15
133 138 140 435 15
355 420 258 442 15
441 471 447 472 15
465 473 434 476 15
290 147 77 466 15
405 409 348 485 15
56 421 394 213 15
319 290 340 445 15
318 345 300 446 15
167 148 166 456 15
31 390 350 270 15
384 412 356 479 15
394 190 213 443 15
322 343 280 75 15
28 351 398 254 15
422 192 33 362 15
40 206 209 380 15
159 186 52 464 15
380 209 40 364 15
302 340 290 466 15
207 210 50 348 15
47 347 384 477 15
398 254 351 457 15
438 451 428 477 15
205 45 383 208 15
319 342 290 445 15
428 451 438 462 15
284 217 462 472 15
309 296 335 473 15
123 121 124 443 15
75 280 322 216 15
215 235 234 460 15
314 68 243 462 15
275 239 236 437 15
354 23 256 481 15
301 290 77 466 15
299 340 322 450 15
270 30 233 452 15
343 299 322 450 15
437 453 439 480 15
72 218 237 482 15
428 447 441 479 15
269 245 248 467 15
413 356 412 479 15
172 151 195 451 15
131 120 126 442 15
396 401 349 480 15
252 226 257 449 15
180 447 181 479 15
132 121 123 443 15
153 167 199 444 15
427 448 440 481 15
258 225 259 442 15
146 185 100 136 15
173 193 183 455 15
325 327 311 482 15
219 263 241 448 15
125 130 122 450 15
396 349 393 439 15
47 188 347 477 15
230 247 272 441 15
125 299 110 130 15
142 141 134 436 15
199 170 171 459 15
47 384 160 477 15
263 250 241 448 15
221 12 370 265 15
308 61 295 474 15
312 339 310 468 15
441 479 447 484 15
268 244 246 473 15
382 360 416 461 15
109 122 130 253 15
227 28 398 254 15
291 66 313 471 15
211 185 100 146 15
300 146 101 139 15
227 254 398 457 15
266 262 220 458 15
331 288 316 459 15
68 217 243 462 15
158 190 191 443 15
420 355 391 442 15
295 61 224 474 15
67 284 313 472 15
269 232 264 454 15
291 223 66 471 15
133 143 97 392 15
301 168 78 478 15
347 477 188 486 15
23 228 256 481 15
391 355 418 442 15
308 242 61 474 15
48 163 385 486 15
403 417 354 481 15
282 131 107 225 15
183 210 179 485 15
240 313 66 471 15
280 109 130 253 15
67 313 240 472 15
451 477 438 486 15
94 148 345 318 15
144 103 134 344 15
180 479 208 484 15
342 119 112 129 15
301 78 303 478 15
150 177 202 475 15
366 418 394 443 15
285 314 69 483 15
274 278 16 358 15
301 77 168 466 15
325 218 72 482 15
326 339 285 467 15
258 420 9 282 15
421 366 394 443 15
294 308 331 458 15
48 188 163 486 15
284 67 217 472 15
283 338 306 470 15
119 112 319 342 15
103 320 134 344 15
370 361 401 480 15
373 397 417 481 15
282 225 258 442 15
249 248 222 483 15
77 147 168 466 15
165 198 169 439 15
247 230 267 441 15
232 248 274 463 15
69 314 243 483 15
381 405 359 463 15
148 211 94 345 15
127 119 128 445 15
222 285 69 483 15
354 397 23 481 15
303 78 152 478 15
166 199 167 456 15
194 149 200 470 15
157 214 98 143 15
266 234 235 460 15
252 141 144 104 15
315 289 335 476 15
119 127 129 445 15
243 314 462 483 15
221 239 275 453 15
403 404 364 465 15
301 466 168 478 15
158 213 190 443 15
350 402 386 452 15
333 317 332 475 15
160 188 47 477 15
131 126 107 225 15
143 422 97 392 15
135 145 106 281 15
127 129 184 113 15
224 61 242 474 15
284 314 336 462 15
152 78 168 478 15
394 190 56 213 15
148 185 211 446 15
381 409 405 463 15
240 66 223 471 15
197 196 171 461 15
420 9 355 258 15
179 174 156 468 15
235 233 266 452 15
313 471 240 472 15
154 182 178 476 15
221 271 239 453 15
203 167 153 444 15
217 67 240 472 15
352 389 408 464 15
204 165 169 439 15
23 397 228 481 15
140 157 98 143 15
265 238 264 454 15
123 366 116 132 15
343 110 299 130 15
122 128 125 450 15
317 288 332 475 15
106 226 135 281 15
137 367 95 145 15
302 290 301 466 15
144 279 252 104 15
181 180 155 447 15
101 345 146 300 15
156 183 179 468 15
290 77 147 76 15
363 402 371 444 15
150 171 170 459 15
208 181 160 479 15
378 415 399 469 15
212 184 129 113 15
222 69 243 483 15
180 181 208 479 15
410 347 385 486 15
219 244 268 473 15
399 353 26 273 15
272 21 346 400 15
173 152 193 455 15
195 151 201 451 15
200 149 176 470 15
285 334 314 483 15
66 65 223 291 15
57 58 293 215 15
84 85 298 155 15
61 295 224 62 15
88 154 89 289 15
366 116 132 421 15
281 423 32 260 15
286 327 325 482 15
411 384 347 477 15
173 292 80 79 15
80 310 156 81 15
90 150 91 288 15
93 92 166 287 15
423 95 367 145 15
65 305 64 241 15
242 60 308 61 15
307 84 172 83 15
175 88 87 315 15
423 390 32 260 15
104 252 141 105 15
59 234 304 58 15
240 67 66 313 15
92 91 170 316 15
180 205 162 484 15
255 19 18 365 15
386 29 30 233 15
351 28 29 254 15
47 48 347 188 15
24 23 256 354 15
113 184 127 114 15
177 90 89 317 15
269 454 238 482 15
86 176 306 85 15
62 309 244 63 15
297 82 83 151 15
60 220 294 59 15
149 283 87 86 15
296 219 63 64 15
262 242 220 458 15
99 100 185 136 15
357 42 43 187 15
174 312 82 81 15
291 313 329 471 15
180 208 205 484 15
332 308 295 474 15
179 210 207 485 15
109 108 122 253 15
118 120 391 117 15
154 175 182 476 15
97 133 392 96 15
226 260 257 449 15
148 94 93 318 15
69 222 70 285 15
163 179 207 485 15
229 18 17 379 15
20 19 230 374 15
385 48 49 163 15
231 25 24 387 15
52 186 53 389 15
270 233 235 452 15
185 148 189 446 15
54 349 53 165 15
398 351 416 457 15
319 111 112 119 15
134 102 320 103 15
46 47 384 160 15
159 52 51 352 15
34 33 192 362 15
372 43 44 162 15
276 399 26 273 15
21 272 277 400 15
36 35 153 363 15
330 313 284 472 15
370 401 396 480 15
69 68 243 314 15
376 41 42 161 15
77 78 301 168 15
218 238 237 482 15
403 387 404 465 15
217 284 68 67 15
415 378 377 469 15
39 38 164 377 15
228 263 256 481 15
240 223 247 471 15
13 14 375 264 15
168 147 169 466 15
216 322 75 74 15
152 168 198 478 15
301 303 324 478 15
31 32 390 260 15
79 152 303 78 15
37 36 196 382 15
286 72 73 237 15
38 37 197 360 15
74 236 321 73 15
227 262 254 457 15
70 71 326 245 15
10 11 368 271 15
40 39 206 380 15
188 201 163 486 15
224 242 251 474 15
222 248 245 467 15
114 158 121 115 15
11 12 370 221 15
225 126 107 108 15
125 299 111 110 15
203 35 34 371 15
14 15 359 232 15
101 300 139 102 15
30 31 350 270 15
12 13 361 265 15
145 423 3 281 15
186 159 193 464 15
261 243 217 462 15
25 26 353 273 15
50 49 207 348 15
21 20 272 346 15
105 226 135 106 15
44 45 383 205 15
99 157 98 140 15
3 95 423 145 15
123 366 117 116 15
269 238 218 482 15
355 9 10 258 15
137 367 96 95 15
72 325 71 218 15
356 45 46 208 15
210 51 50 388 15
5 345 146 101 15
209 41 40 364 15
238 269 264 454 15
381 15 16 274 15
393 55 204 54 15
345 211 5 146 15
243 249 222 483 15
27 28 398 227 15
23 22 228 397 15
420 131 2 282 15
195 188 160 477 15
240 267 217 472 15
129 8 342 212 15
143 214 4 422 15
17 16 278 358 15
344 144 6 279 15
144 6 103 344 15
112 8 342 129 15
421 1 132 213 15
130 343 7 280 15
4 143 422 97 15
131 2 118 420 15
106 145 3 281 15
354 417 397 481 15
190 55 394 56 15
107 2 131 282 15
115 132 1 213 15
423 32 3 281 15
4 98 214 143 15
2 9 420 282 15
214 33 4 422 15
132 116 1 421 15
129 8 212 113 15
26 27 399 276 15
22 21 277 400 15
109 130 7 280 15
1 421 56 213 15
76 342 8 212 15
343 7 110 130 15
279 144 6 104 15
57 344 6 279 15
94 211 5 345 15
211 100 5 146 15
280 343 7 75 15
277 481 250 228 15
250 481 277 440 15
464 480 186 389 15
186 480 464 429 15
440 414 400 432 15
440 400 414 373 15
476 209 427 182 15
476 427 209 465 15
161 427 209 182 15
161 209 427 465 15
443 204 169 439 15
443 169 204 190 15
465 178 206 209 15
465 206 178 434 15
463 388 406 433 15
463 406 388 405 15
120 443 391 123 15
391 443 120 442 15
480 408 464 429 15
480 464 408 401 15
476 317 333 475 15
476 333 317 289 15
461 469 378 426 15
378 469 461 360 15
426 227 262 251 15
426 262 227 457 15
459 475 331 288 15
331 475 459 426 15
482 326 245 467 15
482 245 326 325 15
468 173 183 455 15
468 183 173 156 15
446 138 436 435 15
446 436 138 142 15
452 257 425 235 15
452 425 257 449 15
190 393 55 204 15
190 55 393 394 15
475 295 434 474 15
475 434 295 333 15
230 346 20 374 15
20 346 230 272 15
273 387 465 353 15
465 387 273 231 15
471 267 247 240 15
471 247 267 441 15
143 392 435 422 15
435 392 143 133 15
120 420 118 391 15
118 420 120 131 15
467 70 285 326 15
467 285 70 222 15
121 213 115 158 15
115 213 121 132 15
End
